<svg width="39" height="38" viewBox="0 0 39 38" fill="none" xmlns="http://www.w3.org/2000/svg">
<path fill-rule="evenodd" clip-rule="evenodd" d="M5.0105 0H11.5205C12.7805 0 13.9905 0.5 14.8805 1.4C15.7705 2.29 16.2705 3.5 16.2605 4.76V11.25C16.2605 13.87 14.1405 15.99 11.5205 15.99H5.0105C2.3905 15.99 0.270508 13.87 0.270508 11.25V4.76C0.270508 3.5 0.760497 2.29 1.6505 1.4C2.5405 0.51 3.7505 0 5.0105 0ZM11.5205 12.8C12.3905 12.79 13.0905 12.09 13.1005 11.22V4.75C13.1005 3.88 12.3905 3.17 11.5205 3.17H5.0105C4.1405 3.17 3.4305 3.88 3.4305 4.75V11.22C3.4405 12.09 4.1405 12.79 5.0105 12.8H11.5205Z" fill="black"/>
<path fill-rule="evenodd" clip-rule="evenodd" d="M26.9402 0H33.4502C34.7102 0 35.9202 0.5 36.8102 1.4C37.7002 2.29 38.2002 3.5 38.1902 4.76V11.25C38.1902 13.87 36.0702 15.99 33.4502 15.99H26.9402C24.3202 15.99 22.2002 13.87 22.2002 11.25V4.74C22.2002 2.12 24.3202 0 26.9402 0ZM33.4502 12.8C34.3202 12.79 35.0202 12.09 35.0302 11.22V4.75C35.0302 3.88 34.3202 3.17 33.4502 3.17H26.9402C26.0702 3.17 25.3602 3.88 25.3602 4.75V11.22C25.3702 12.09 26.0702 12.79 26.9402 12.8H33.4502Z" fill="black"/>
<path fill-rule="evenodd" clip-rule="evenodd" d="M4.99015 21.9404H11.5001C14.1201 21.9404 16.2402 24.0604 16.2402 26.6804V33.1904C16.2402 35.8104 14.1201 37.9304 11.5001 37.9304H4.99015C3.73015 37.9304 2.52015 37.4304 1.63015 36.5304C0.740152 35.6404 0.240147 34.4304 0.250147 33.1704V26.6804C0.250147 24.0604 2.37015 21.9404 4.99015 21.9404ZM11.5001 34.7404C12.3701 34.7404 13.0801 34.0304 13.0801 33.1604V26.6704C13.0701 25.8004 12.3701 25.1004 11.5001 25.0904H4.99015C4.12015 25.1004 3.42015 25.8004 3.41015 26.6704V33.1604C3.41015 34.0304 4.12015 34.7404 4.99015 34.7404H11.5001Z" fill="black"/>
<path d="M30.1698 37.9998C25.7198 37.9998 22.0898 34.3698 22.0898 29.9198C22.0898 25.4698 25.7198 21.8398 30.1698 21.8398C34.6198 21.8398 38.2498 25.4698 38.2498 29.9198C38.2498 34.3698 34.6198 37.9998 30.1698 37.9998ZM30.1698 24.9998C27.4598 24.9998 25.2498 27.2098 25.2498 29.9198C25.2498 32.6298 27.4598 34.8398 30.1698 34.8398C32.8798 34.8398 35.0898 32.6298 35.0898 29.9198C35.0898 27.2098 32.8798 24.9998 30.1698 24.9998Z" fill="black"/>
</svg>
