<svg width="40" height="40" viewBox="0 0 40 40" fill="none" xmlns="http://www.w3.org/2000/svg">
<path d="M0 5C0 2.24 2.24 0 5 0H11.87C14.63 0 16.87 2.24 16.87 5V11.87C16.87 14.63 14.63 16.87 11.87 16.87H5C2.24 16.87 0 14.63 0 11.87V5Z" fill="#2BA0AF"/>
<path d="M23.1299 5C23.1299 2.24 25.3699 0 28.1299 0H34.9999C37.7599 0 39.9999 2.24 39.9999 5V11.87C39.9999 14.63 37.7599 16.87 34.9999 16.87H28.1299C25.3699 16.87 23.1299 14.63 23.1299 11.87V5Z" fill="#2BA0AF"/>
<path d="M0 28.1299C0 25.3699 2.24 23.1299 5 23.1299H11.87C14.63 23.1299 16.87 25.3699 16.87 28.1299V34.9999C16.87 37.7599 14.63 39.9999 11.87 39.9999H5C2.24 39.9999 0 37.7599 0 34.9999V28.1299Z" fill="#2BA0AF"/>
<path d="M31.5697 39.9899C36.2254 39.9899 39.9996 36.2156 39.9996 31.5599C39.9996 26.9041 36.2254 23.1299 31.5697 23.1299C26.9139 23.1299 23.1396 26.9041 23.1396 31.5599C23.1396 36.2156 26.9139 39.9899 31.5697 39.9899Z" fill="#2BA0AF"/>
</svg>
