<svg width="40" height="40" viewBox="0 0 40 40" fill="none" xmlns="http://www.w3.org/2000/svg">
<path d="M20 0.00126297C14.75 -0.058737 9.70001 2.02128 5.95001 5.77128C2.20001 9.52128 0.06 14.6413 0 20.0013C0.06 25.3613 2.20001 30.4812 5.95001 34.2312C9.70001 37.9812 14.76 40.0613 20 40.0013C25.25 40.0613 30.3 37.9812 34.05 34.2312C37.8 30.4812 39.94 25.3613 40 20.0013C39.94 14.6413 37.8 9.52128 34.05 5.77128C30.3 2.02128 25.24 -0.058737 20 0.00126297ZM20 10.0013C21.08 10.0213 22.14 10.3713 23.03 11.0113C23.92 11.6413 24.61 12.5313 25.01 13.5613C25.41 14.5913 25.5 15.7213 25.27 16.8013C25.05 17.8813 24.51 18.8713 23.74 19.6513C22.97 20.4213 21.98 20.9512 20.92 21.1612C19.86 21.3712 18.75 21.2513 17.75 20.8213C16.75 20.3913 15.9 19.6713 15.3 18.7513C14.7 17.8313 14.38 16.7413 14.38 15.6413C14.4 14.1313 15 12.6913 16.05 11.6413C17.1 10.5913 18.53 10.0013 20 10.0213V10.0013ZM20 35.0013C16.04 35.0013 12.23 33.4312 9.39999 30.6012C10.04 28.9412 11.16 27.5213 12.6 26.5213C14.04 25.5213 15.75 24.9913 17.49 24.9913H22.49C24.23 24.9913 25.94 25.5213 27.38 26.5213C28.83 27.5213 29.94 28.9412 30.58 30.6012C27.75 33.4312 23.94 35.0113 19.98 35.0013H20Z" fill="#2BA0AF"/>
</svg>
