<svg width="38" height="38" viewBox="0 0 38 38" fill="none" xmlns="http://www.w3.org/2000/svg">
<path d="M19 -4.75277e-05C14.01 -0.0500475 9.20999 1.91995 5.64999 5.47995C2.08999 9.03995 0.06 13.91 0 19C0.05 24.09 2.08999 28.96 5.64999 32.52C9.20999 36.08 14.02 38.05 19 38C23.99 38.05 28.79 36.08 32.35 32.52C35.91 28.96 37.95 24.09 38 19C37.95 13.91 35.91 9.03995 32.35 5.47995C28.79 1.91995 23.98 -0.0500475 19 -4.75277e-05ZM19 9.49995C20.03 9.51995 21.03 9.85995 21.87 10.46C22.72 11.06 23.37 11.9 23.75 12.88C24.13 13.86 24.22 14.93 24 15.96C23.79 16.99 23.28 17.93 22.54 18.67C21.8 19.41 20.87 19.9 19.86 20.1C18.85 20.3 17.8 20.18 16.85 19.78C15.9 19.37 15.09 18.69 14.52 17.81C13.95 16.93 13.65 15.9 13.65 14.85C13.67 13.42 14.24 12.05 15.24 11.05C16.24 10.05 17.59 9.48995 19 9.50995V9.49995ZM19 33.25C15.24 33.25 11.62 31.76 8.92999 29.07C9.53999 27.5 10.6 26.15 11.97 25.2C13.34 24.25 14.96 23.75 16.62 23.75H21.37C23.03 23.75 24.65 24.25 26.02 25.2C27.39 26.15 28.45 27.5 29.06 29.07C26.37 31.76 22.76 33.26 18.99 33.25H19Z" fill="#333333"/>
</svg>
