<svg width="40" height="37" viewBox="0 0 40 37" fill="none" xmlns="http://www.w3.org/2000/svg">
<path d="M39.9217 32.9233L36.6667 3.36364C36.6667 1.50523 35.175 0 33.3333 0H20H6.66667C4.825 0 3.33333 1.50523 3.33333 3.36364L0.0783332 32.9233C0.0299999 33.1537 0 33.3908 0 33.6364C0 35.4948 1.49167 37 3.33333 37H20H36.6667C38.5083 37 40 35.4948 40 33.6364C40 33.3908 39.97 33.1537 39.9217 32.9233ZM28.3333 8.25436V10.0909C28.3333 14.7277 24.595 18.5 20 18.5C15.405 18.5 11.6667 14.7277 11.6667 10.0909V8.25436C10.6983 7.90791 10 6.98291 10 5.88636C10 4.49382 11.12 3.36364 12.5 3.36364C13.88 3.36364 15 4.49382 15 5.88636V10.0909C15 12.8726 17.2433 15.1364 20 15.1364C22.7567 15.1364 25 12.8726 25 10.0909V5.88636C25 4.49382 26.12 3.36364 27.5 3.36364C28.88 3.36364 30 4.49382 30 5.88636C30 6.98291 29.3017 7.90791 28.3333 8.25436Z" fill="#2BA0AF"/>
</svg>
