<svg width="40" height="37" viewBox="0 0 40 37" fill="none" xmlns="http://www.w3.org/2000/svg">
<path d="M39.9207 32.9233L36.6657 3.36364C36.6657 1.50523 35.1741 0 33.3324 0H19.9991H6.66575C4.82408 0 3.33242 1.50523 3.33242 3.36364L0.0774177 32.9233C0.0290844 33.1537 -0.000915527 33.3908 -0.000915527 33.6364C-0.000915527 35.4948 1.49075 37 3.33242 37H19.9991H36.6657C38.5074 37 39.9991 35.4948 39.9991 33.6364C39.9991 33.3908 39.9691 33.1537 39.9207 32.9233ZM28.3324 8.25436V10.0909C28.3324 14.7277 24.5941 18.5 19.9991 18.5C15.4041 18.5 11.6658 14.7277 11.6658 10.0909V8.25436C10.6974 7.90791 9.99908 6.98291 9.99908 5.88636C9.99908 4.49382 11.1191 3.36364 12.4991 3.36364C13.8791 3.36364 14.9991 4.49382 14.9991 5.88636V10.0909C14.9991 12.8726 17.2424 15.1364 19.9991 15.1364C22.7558 15.1364 24.9991 12.8726 24.9991 10.0909V5.88636C24.9991 4.49382 26.1191 3.36364 27.4991 3.36364C28.8791 3.36364 29.9991 4.49382 29.9991 5.88636C29.9991 6.98291 29.3008 7.90791 28.3324 8.25436Z" fill="white"/>
</svg>
