<svg width="38" height="34" viewBox="0 0 38 34" fill="none" xmlns="http://www.w3.org/2000/svg">
<path d="M18.91 33.31C17.97 33.31 16.85 32.94 16.1 32.19C3.93001 21.52 3.75 21.33 3.75 21.15L3.56 20.96C1.31 18.71 0 15.53 0 12.35V11.98C0.19 5.24 5.62001 0 12.35 0C14.41 0 17.22 1.12 18.9 3.37C20.58 1.12 23.58 0 25.64 0C32.38 0 37.62 5.24 37.99 11.98V12.35C37.99 15.72 36.68 18.71 34.43 21.15L34.24 21.34C34.05 21.53 32.56 22.84 21.89 32.38C20.95 32.94 20.02 33.32 18.89 33.32L18.91 33.31ZM6.55 20.58C7.3 21.33 11.04 23.95 17.97 29.94C18.53 30.5 19.28 30.5 19.84 29.94C26.95 23.58 31.07 20.02 32.01 19.27L32.2 19.08C34.07 17.21 35.01 14.77 35.01 12.34V11.97C34.82 6.73 30.7 2.8 25.46 2.8C24.15 2.8 21.53 3.74 20.59 5.8C20.22 6.55 19.47 6.92 18.72 6.92C17.97 6.92 17.22 6.55 16.85 5.8C15.91 3.93 13.48 2.8 11.98 2.8C6.93001 2.8 2.61999 6.92 2.42999 11.97V12.53C2.42999 14.96 3.55001 17.4 5.24001 19.08L6.55 20.58Z" fill="black"/>
</svg>
