<svg width="20" height="17" viewBox="0 0 20 17" fill="none" xmlns="http://www.w3.org/2000/svg">
<path d="M10.0392 16.5833C9.58034 16.5833 9.03341 16.4026 8.66724 16.0364C2.72971 10.8312 2.64165 10.7385 2.64165 10.6458L2.54895 10.5531C1.45507 9.45921 0.81543 7.90646 0.81543 6.35372V6.17294C0.908131 2.88668 3.55476 0.328125 6.84102 0.328125C7.84683 0.328125 9.21417 0.875058 10.0392 1.97357C10.8596 0.879693 12.3243 0.328125 13.3255 0.328125C16.6117 0.328125 19.1703 2.88668 19.3511 6.17294V6.35372C19.3511 7.99917 18.7114 9.45922 17.6176 10.6458L17.5249 10.7385C17.4321 10.8312 16.7044 11.4708 11.4993 16.1291C11.0404 16.4025 10.5862 16.5879 10.0392 16.5879V16.5833Z" fill="#2BA0AF"/>
</svg>
