<svg width="316" height="76" viewBox="0 0 316 76" fill="none" xmlns="http://www.w3.org/2000/svg">
<path d="M100.645 58.848V60.032H95.7974V63.792H99.7334V64.976H95.7974V70H94.3414V58.848H100.645ZM101.86 65.584C101.86 64.688 102.041 63.904 102.404 63.232C102.767 62.5493 103.263 62.0213 103.892 61.648C104.532 61.2747 105.241 61.088 106.02 61.088C106.788 61.088 107.455 61.2533 108.02 61.584C108.585 61.9147 109.007 62.3307 109.284 62.832V61.232H110.756V70H109.284V68.368C108.996 68.88 108.564 69.3067 107.988 69.648C107.423 69.9787 106.761 70.144 106.004 70.144C105.225 70.144 104.521 69.952 103.892 69.568C103.263 69.184 102.767 68.6453 102.404 67.952C102.041 67.2587 101.86 66.4693 101.86 65.584ZM109.284 65.6C109.284 64.9387 109.151 64.3627 108.884 63.872C108.617 63.3813 108.255 63.008 107.796 62.752C107.348 62.4853 106.852 62.352 106.308 62.352C105.764 62.352 105.268 62.48 104.82 62.736C104.372 62.992 104.015 63.3653 103.748 63.856C103.481 64.3467 103.348 64.9227 103.348 65.584C103.348 66.256 103.481 66.8427 103.748 67.344C104.015 67.8347 104.372 68.2133 104.82 68.48C105.268 68.736 105.764 68.864 106.308 68.864C106.852 68.864 107.348 68.736 107.796 68.48C108.255 68.2133 108.617 67.8347 108.884 67.344C109.151 66.8427 109.284 66.2613 109.284 65.6ZM113.968 59.808C113.691 59.808 113.456 59.712 113.264 59.52C113.072 59.328 112.976 59.0933 112.976 58.816C112.976 58.5387 113.072 58.304 113.264 58.112C113.456 57.92 113.691 57.824 113.968 57.824C114.235 57.824 114.459 57.92 114.64 58.112C114.832 58.304 114.928 58.5387 114.928 58.816C114.928 59.0933 114.832 59.328 114.64 59.52C114.459 59.712 114.235 59.808 113.968 59.808ZM114.672 61.232V70H113.216V61.232H114.672ZM118.61 62.656C118.866 62.1547 119.229 61.7653 119.698 61.488C120.178 61.2107 120.759 61.072 121.442 61.072V62.576H121.058C119.426 62.576 118.61 63.4613 118.61 65.232V70H117.154V61.232H118.61V62.656Z" fill="#3F3F3F"/>
<circle cx="108" cy="26" r="26" fill="#E9F5F7"/>
<g filter="url(#filter0_d_1170_7549)">
<path d="M107.998 46.1218C121.417 46.1218 128.122 37.1122 128.122 25.9984C128.122 14.8846 121.417 5.875 107.998 5.875C94.5801 5.875 87.875 14.8846 87.875 25.9984C87.875 37.1122 94.5801 46.1218 107.998 46.1218Z" fill="url(#paint0_radial_1170_7549)"/>
<path d="M107.998 46.1218C121.417 46.1218 128.122 37.1122 128.122 25.9984C128.122 14.8846 121.417 5.875 107.998 5.875C94.5801 5.875 87.875 14.8846 87.875 25.9984C87.875 37.1122 94.5801 46.1218 107.998 46.1218Z" fill="url(#paint1_radial_1170_7549)"/>
<path d="M107.998 46.1218C121.417 46.1218 128.122 37.1122 128.122 25.9984C128.122 14.8846 121.417 5.875 107.998 5.875C94.5801 5.875 87.875 14.8846 87.875 25.9984C87.875 37.1122 94.5801 46.1218 107.998 46.1218Z" fill="url(#paint2_radial_1170_7549)"/>
<path d="M107.998 46.1218C121.417 46.1218 128.122 37.1122 128.122 25.9984C128.122 14.8846 121.417 5.875 107.998 5.875C94.5801 5.875 87.875 14.8846 87.875 25.9984C87.875 37.1122 94.5801 46.1218 107.998 46.1218Z" fill="url(#paint3_radial_1170_7549)" fill-opacity="0.6"/>
<path d="M107.998 46.1218C121.417 46.1218 128.122 37.1122 128.122 25.9984C128.122 14.8846 121.417 5.875 107.998 5.875C94.5801 5.875 87.875 14.8846 87.875 25.9984C87.875 37.1122 94.5801 46.1218 107.998 46.1218Z" fill="url(#paint4_radial_1170_7549)"/>
<path d="M107.998 46.1218C121.417 46.1218 128.122 37.1122 128.122 25.9984C128.122 14.8846 121.417 5.875 107.998 5.875C94.5801 5.875 87.875 14.8846 87.875 25.9984C87.875 37.1122 94.5801 46.1218 107.998 46.1218Z" fill="url(#paint5_radial_1170_7549)"/>
<path d="M107.998 46.1218C121.417 46.1218 128.122 37.1122 128.122 25.9984C128.122 14.8846 121.417 5.875 107.998 5.875C94.5801 5.875 87.875 14.8846 87.875 25.9984C87.875 37.1122 94.5801 46.1218 107.998 46.1218Z" fill="url(#paint6_radial_1170_7549)"/>
<path d="M107.998 46.1218C121.417 46.1218 128.122 37.1122 128.122 25.9984C128.122 14.8846 121.417 5.875 107.998 5.875C94.5801 5.875 87.875 14.8846 87.875 25.9984C87.875 37.1122 94.5801 46.1218 107.998 46.1218Z" fill="url(#paint7_radial_1170_7549)"/>
</g>
<path d="M95.0625 27.4375C97.2188 29.5938 102.15 29.0759 103.688 26" stroke="url(#paint8_linear_1170_7549)" stroke-width="2.875" stroke-linecap="round" stroke-linejoin="round"/>
<path d="M120.938 27.4375C118.781 29.5938 113.85 29.0759 112.312 26" stroke="url(#paint9_linear_1170_7549)" stroke-width="2.875" stroke-linecap="round" stroke-linejoin="round"/>
<path fill-rule="evenodd" clip-rule="evenodd" d="M114.103 38.5059C110.727 35.1546 105.268 35.1663 101.903 38.5435C101.343 39.1059 100.433 39.1075 99.8702 38.5472C99.3078 37.9868 99.3061 37.0766 99.8664 36.5142C104.35 32.0139 111.627 31.9969 116.129 36.4655C116.692 37.0249 116.696 37.935 116.136 38.4985C115.577 39.0619 114.667 39.0652 114.103 38.5059Z" fill="url(#paint10_linear_1170_7549)"/>
<path d="M16.8364 62.112C16.8364 63.04 16.5164 63.8133 15.8764 64.432C15.2471 65.04 14.2818 65.344 12.9804 65.344H10.8364V70H9.38044V58.848H12.9804C14.2391 58.848 15.1938 59.152 15.8444 59.76C16.5058 60.368 16.8364 61.152 16.8364 62.112ZM12.9804 64.144C13.7911 64.144 14.3884 63.968 14.7724 63.616C15.1564 63.264 15.3484 62.7627 15.3484 62.112C15.3484 60.736 14.5591 60.048 12.9804 60.048H10.8364V64.144H12.9804ZM22.4701 70.144C21.6487 70.144 20.9021 69.9573 20.2301 69.584C19.5687 69.2107 19.0461 68.6827 18.6621 68C18.2887 67.3067 18.1021 66.5067 18.1021 65.6C18.1021 64.704 18.2941 63.9147 18.6781 63.232C19.0727 62.5387 19.6061 62.0107 20.2781 61.648C20.9501 61.2747 21.7021 61.088 22.5341 61.088C23.3661 61.088 24.1181 61.2747 24.7901 61.648C25.4621 62.0107 25.9901 62.5333 26.3741 63.216C26.7687 63.8987 26.9661 64.6933 26.9661 65.6C26.9661 66.5067 26.7634 67.3067 26.3581 68C25.9634 68.6827 25.4247 69.2107 24.7421 69.584C24.0594 69.9573 23.3021 70.144 22.4701 70.144ZM22.4701 68.864C22.9927 68.864 23.4834 68.7413 23.9421 68.496C24.4007 68.2507 24.7687 67.8827 25.0461 67.392C25.3341 66.9013 25.4781 66.304 25.4781 65.6C25.4781 64.896 25.3394 64.2987 25.0621 63.808C24.7847 63.3173 24.4221 62.9547 23.9741 62.72C23.5261 62.4747 23.0407 62.352 22.5181 62.352C21.9847 62.352 21.4941 62.4747 21.0461 62.72C20.6087 62.9547 20.2567 63.3173 19.9901 63.808C19.7234 64.2987 19.5901 64.896 19.5901 65.6C19.5901 66.3147 19.7181 66.9173 19.9741 67.408C20.2407 67.8987 20.5927 68.2667 21.0301 68.512C21.4674 68.7467 21.9474 68.864 22.4701 68.864ZM32.7044 70.144C31.8831 70.144 31.1364 69.9573 30.4644 69.584C29.8031 69.2107 29.2804 68.6827 28.8964 68C28.5231 67.3067 28.3364 66.5067 28.3364 65.6C28.3364 64.704 28.5284 63.9147 28.9124 63.232C29.3071 62.5387 29.8404 62.0107 30.5124 61.648C31.1844 61.2747 31.9364 61.088 32.7684 61.088C33.6004 61.088 34.3524 61.2747 35.0244 61.648C35.6964 62.0107 36.2244 62.5333 36.6084 63.216C37.0031 63.8987 37.2004 64.6933 37.2004 65.6C37.2004 66.5067 36.9978 67.3067 36.5924 68C36.1978 68.6827 35.6591 69.2107 34.9764 69.584C34.2938 69.9573 33.5364 70.144 32.7044 70.144ZM32.7044 68.864C33.2271 68.864 33.7178 68.7413 34.1764 68.496C34.6351 68.2507 35.0031 67.8827 35.2804 67.392C35.5684 66.9013 35.7124 66.304 35.7124 65.6C35.7124 64.896 35.5738 64.2987 35.2964 63.808C35.0191 63.3173 34.6564 62.9547 34.2084 62.72C33.7604 62.4747 33.2751 62.352 32.7524 62.352C32.2191 62.352 31.7284 62.4747 31.2804 62.72C30.8431 62.9547 30.4911 63.3173 30.2244 63.808C29.9578 64.2987 29.8244 64.896 29.8244 65.6C29.8244 66.3147 29.9524 66.9173 30.2084 67.408C30.4751 67.8987 30.8271 68.2667 31.2644 68.512C31.7018 68.7467 32.1818 68.864 32.7044 68.864ZM40.5708 62.656C40.8268 62.1547 41.1895 61.7653 41.6588 61.488C42.1388 61.2107 42.7201 61.072 43.4028 61.072V62.576H43.0188C41.3868 62.576 40.5708 63.4613 40.5708 65.232V70H39.1148V61.232H40.5708V62.656Z" fill="#3F3F3F"/>
<circle cx="26" cy="26" r="26" fill="#E9F5F7"/>
<g filter="url(#filter1_d_1170_7549)">
<path d="M25.9984 46.1218C39.4167 46.1218 46.1218 37.1122 46.1218 25.9984C46.1218 14.8846 39.4167 5.875 25.9984 5.875C12.5801 5.875 5.875 14.8846 5.875 25.9984C5.875 37.1122 12.5801 46.1218 25.9984 46.1218Z" fill="url(#paint11_radial_1170_7549)"/>
<path d="M25.9984 46.1218C39.4167 46.1218 46.1218 37.1122 46.1218 25.9984C46.1218 14.8846 39.4167 5.875 25.9984 5.875C12.5801 5.875 5.875 14.8846 5.875 25.9984C5.875 37.1122 12.5801 46.1218 25.9984 46.1218Z" fill="url(#paint12_radial_1170_7549)"/>
<path d="M25.9984 46.1218C39.4167 46.1218 46.1218 37.1122 46.1218 25.9984C46.1218 14.8846 39.4167 5.875 25.9984 5.875C12.5801 5.875 5.875 14.8846 5.875 25.9984C5.875 37.1122 12.5801 46.1218 25.9984 46.1218Z" fill="url(#paint13_radial_1170_7549)"/>
<path d="M25.9984 46.1218C39.4167 46.1218 46.1218 37.1122 46.1218 25.9984C46.1218 14.8846 39.4167 5.875 25.9984 5.875C12.5801 5.875 5.875 14.8846 5.875 25.9984C5.875 37.1122 12.5801 46.1218 25.9984 46.1218Z" fill="url(#paint14_radial_1170_7549)" fill-opacity="0.6"/>
<path d="M25.9984 46.1218C39.4167 46.1218 46.1218 37.1122 46.1218 25.9984C46.1218 14.8846 39.4167 5.875 25.9984 5.875C12.5801 5.875 5.875 14.8846 5.875 25.9984C5.875 37.1122 12.5801 46.1218 25.9984 46.1218Z" fill="url(#paint15_radial_1170_7549)"/>
<path d="M25.9984 46.1218C39.4167 46.1218 46.1218 37.1122 46.1218 25.9984C46.1218 14.8846 39.4167 5.875 25.9984 5.875C12.5801 5.875 5.875 14.8846 5.875 25.9984C5.875 37.1122 12.5801 46.1218 25.9984 46.1218Z" fill="url(#paint16_radial_1170_7549)"/>
<path d="M25.9984 46.1218C39.4167 46.1218 46.1218 37.1122 46.1218 25.9984C46.1218 14.8846 39.4167 5.875 25.9984 5.875C12.5801 5.875 5.875 14.8846 5.875 25.9984C5.875 37.1122 12.5801 46.1218 25.9984 46.1218Z" fill="url(#paint17_radial_1170_7549)"/>
<path d="M25.9984 46.1218C39.4167 46.1218 46.1218 37.1122 46.1218 25.9984C46.1218 14.8846 39.4167 5.875 25.9984 5.875C12.5801 5.875 5.875 14.8846 5.875 25.9984C5.875 37.1122 12.5801 46.1218 25.9984 46.1218Z" fill="url(#paint18_radial_1170_7549)"/>
</g>
<g filter="url(#filter2_f_1170_7549)">
<path d="M16.5804 30.7833C15.8703 31.1383 15.0068 30.8505 14.6518 30.1404C14.2967 29.4303 14.5845 28.5669 15.2946 28.2118L18.4665 26.6259H23.125C23.1237 27.1691 22.8164 27.6653 22.3304 27.9083L16.5804 30.7833Z" fill="url(#paint19_radial_1170_7549)" fill-opacity="0.6" style="mix-blend-mode:multiply"/>
<path d="M16.5804 22.4685C15.8703 22.1134 15.0068 22.4013 14.6518 23.1114C14.2967 23.8214 14.5845 24.6849 15.2946 25.04L18.4665 26.6259H23.125C23.1237 26.0827 22.8164 25.5865 22.3304 25.3435L16.5804 22.4685Z" fill="url(#paint20_radial_1170_7549)" fill-opacity="0.6" style="mix-blend-mode:multiply"/>
</g>
<path d="M16.5804 30.1543C15.8703 30.5094 15.0068 30.2215 14.6518 29.5115C14.2967 28.8014 14.5845 27.9379 15.2946 27.5828L18.4665 25.9969H23.125C23.1237 26.5401 22.8164 27.0363 22.3304 27.2793L16.5804 30.1543Z" fill="url(#paint21_linear_1170_7549)"/>
<path d="M16.5804 21.8396C15.8703 21.4845 15.0068 21.7724 14.6518 22.4824C14.2967 23.1925 14.5845 24.056 15.2946 24.4111L18.4665 25.997H23.125C23.1237 25.4538 22.8164 24.9576 22.3304 24.7146L16.5804 21.8396Z" fill="url(#paint22_linear_1170_7549)"/>
<g filter="url(#filter3_f_1170_7549)">
<path d="M34.5661 30.7833C35.2762 31.1383 36.1397 30.8505 36.4947 30.1404C36.8498 29.4303 36.5619 28.5669 35.8518 28.2118L32.68 26.6259H28.0215C28.0227 27.1691 28.3301 27.6653 28.8161 27.9083L34.5661 30.7833Z" fill="url(#paint23_radial_1170_7549)"/>
<path d="M34.5661 22.4685C35.2762 22.1134 36.1397 22.4013 36.4947 23.1114C36.8498 23.8214 36.5619 24.6849 35.8518 25.04L32.68 26.6259H28.0215C28.0227 26.0827 28.3301 25.5865 28.8161 25.3435L34.5661 22.4685Z" fill="url(#paint24_radial_1170_7549)"/>
</g>
<path d="M35.3972 30.1543C36.1073 30.5094 36.9707 30.2215 37.3258 29.5115C37.6808 28.8014 37.393 27.9379 36.6829 27.5828L33.5111 25.9969H28.8525C28.8538 26.5401 29.1612 27.0363 29.6472 27.2793L35.3972 30.1543Z" fill="url(#paint25_linear_1170_7549)"/>
<path d="M35.3972 21.8396C36.1073 21.4845 36.9707 21.7724 37.3258 22.4824C37.6808 23.1925 37.393 24.056 36.6829 24.4111L33.5111 25.997H28.8525C28.8538 25.4538 29.1612 24.9576 29.6472 24.7146L35.3972 21.8396Z" fill="url(#paint26_linear_1170_7549)"/>
<g filter="url(#filter4_f_1170_7549)">
<path d="M21.5049 36.1884L24.944 39.0662M28.8522 35.7192L32.2913 38.5971" stroke="#CD6256" stroke-width="1.5" stroke-linecap="round" stroke-linejoin="round"/>
</g>
<path d="M14.29 35.2722L17.7347 38.1547" stroke="url(#paint27_linear_1170_7549)" stroke-width="2" stroke-linecap="round" stroke-linejoin="round"/>
<path d="M17.7344 38.1545L21.7138 34.8062" stroke="url(#paint28_linear_1170_7549)" stroke-width="2" stroke-linecap="round" stroke-linejoin="round"/>
<path d="M21.876 34.6987L26.0024 38.1552" stroke="url(#paint29_linear_1170_7549)" stroke-width="2" stroke-linecap="round" stroke-linejoin="round"/>
<path d="M30.127 34.6987L26.0006 38.1552" stroke="url(#paint30_linear_1170_7549)" stroke-width="2" stroke-linecap="round" stroke-linejoin="round"/>
<path d="M30.127 34.6987L34.2533 38.1552" stroke="url(#paint31_linear_1170_7549)" stroke-width="2" stroke-linecap="round" stroke-linejoin="round"/>
<path d="M37.7314 35.2385L34.2669 38.1545" stroke="url(#paint32_linear_1170_7549)" stroke-width="2" stroke-linecap="round" stroke-linejoin="round"/>
<path d="M14.29 35.2721L17.7347 38.1546L21.8683 34.6956L26.002 38.1546L30.1356 34.6956L34.2692 38.1546L37.7139 35.2721" stroke="url(#paint33_linear_1170_7549)" stroke-width="2" stroke-linecap="round" stroke-linejoin="round"/>
<g filter="url(#filter5_f_1170_7549)">
<path d="M14.29 35.2721L17.7347 38.1546L21.8683 34.6956L26.002 38.1546L30.1356 34.6956L34.2692 38.1546L37.7139 35.2721" stroke="#694C5E" stroke-width="0.5" stroke-linecap="round" stroke-linejoin="round"/>
</g>
<path d="M177.813 62.08C177.503 61.4293 177.055 60.928 176.469 60.576C175.882 60.2133 175.199 60.032 174.421 60.032C173.642 60.032 172.938 60.2133 172.309 60.576C171.69 60.928 171.199 61.44 170.837 62.112C170.485 62.7733 170.309 63.5413 170.309 64.416C170.309 65.2907 170.485 66.0587 170.837 66.72C171.199 67.3813 171.69 67.8933 172.309 68.256C172.938 68.608 173.642 68.784 174.421 68.784C175.509 68.784 176.405 68.4587 177.109 67.808C177.813 67.1573 178.223 66.2773 178.341 65.168H173.893V63.984H179.893V65.104C179.807 66.0213 179.519 66.864 179.029 67.632C178.538 68.3893 177.893 68.992 177.093 69.44C176.293 69.8773 175.402 70.096 174.421 70.096C173.386 70.096 172.442 69.856 171.589 69.376C170.735 68.8853 170.058 68.208 169.557 67.344C169.066 66.48 168.821 65.504 168.821 64.416C168.821 63.328 169.066 62.352 169.557 61.488C170.058 60.6133 170.735 59.936 171.589 59.456C172.442 58.9653 173.386 58.72 174.421 58.72C175.605 58.72 176.65 59.0133 177.557 59.6C178.474 60.1867 179.141 61.0133 179.557 62.08H177.813ZM185.642 70.144C184.821 70.144 184.074 69.9573 183.402 69.584C182.741 69.2107 182.218 68.6827 181.834 68C181.461 67.3067 181.274 66.5067 181.274 65.6C181.274 64.704 181.466 63.9147 181.85 63.232C182.245 62.5387 182.778 62.0107 183.45 61.648C184.122 61.2747 184.874 61.088 185.706 61.088C186.538 61.088 187.29 61.2747 187.962 61.648C188.634 62.0107 189.162 62.5333 189.546 63.216C189.941 63.8987 190.138 64.6933 190.138 65.6C190.138 66.5067 189.935 67.3067 189.53 68C189.135 68.6827 188.597 69.2107 187.914 69.584C187.231 69.9573 186.474 70.144 185.642 70.144ZM185.642 68.864C186.165 68.864 186.655 68.7413 187.114 68.496C187.573 68.2507 187.941 67.8827 188.218 67.392C188.506 66.9013 188.65 66.304 188.65 65.6C188.65 64.896 188.511 64.2987 188.234 63.808C187.957 63.3173 187.594 62.9547 187.146 62.72C186.698 62.4747 186.213 62.352 185.69 62.352C185.157 62.352 184.666 62.4747 184.218 62.72C183.781 62.9547 183.429 63.3173 183.162 63.808C182.895 64.2987 182.762 64.896 182.762 65.6C182.762 66.3147 182.89 66.9173 183.146 67.408C183.413 67.8987 183.765 68.2667 184.202 68.512C184.639 68.7467 185.119 68.864 185.642 68.864ZM195.876 70.144C195.055 70.144 194.308 69.9573 193.636 69.584C192.975 69.2107 192.452 68.6827 192.068 68C191.695 67.3067 191.508 66.5067 191.508 65.6C191.508 64.704 191.7 63.9147 192.084 63.232C192.479 62.5387 193.012 62.0107 193.684 61.648C194.356 61.2747 195.108 61.088 195.94 61.088C196.772 61.088 197.524 61.2747 198.196 61.648C198.868 62.0107 199.396 62.5333 199.78 63.216C200.175 63.8987 200.372 64.6933 200.372 65.6C200.372 66.5067 200.17 67.3067 199.764 68C199.37 68.6827 198.831 69.2107 198.148 69.584C197.466 69.9573 196.708 70.144 195.876 70.144ZM195.876 68.864C196.399 68.864 196.89 68.7413 197.348 68.496C197.807 68.2507 198.175 67.8827 198.452 67.392C198.74 66.9013 198.884 66.304 198.884 65.6C198.884 64.896 198.746 64.2987 198.468 63.808C198.191 63.3173 197.828 62.9547 197.38 62.72C196.932 62.4747 196.447 62.352 195.924 62.352C195.391 62.352 194.9 62.4747 194.452 62.72C194.015 62.9547 193.663 63.3173 193.396 63.808C193.13 64.2987 192.996 64.896 192.996 65.6C192.996 66.3147 193.124 66.9173 193.38 67.408C193.647 67.8987 193.999 68.2667 194.436 68.512C194.874 68.7467 195.354 68.864 195.876 68.864ZM201.743 65.584C201.743 64.688 201.924 63.904 202.287 63.232C202.649 62.5493 203.145 62.0213 203.775 61.648C204.415 61.2747 205.129 61.088 205.919 61.088C206.601 61.088 207.236 61.248 207.823 61.568C208.409 61.8773 208.857 62.288 209.167 62.8V58.16H210.639V70H209.167V68.352C208.879 68.8747 208.452 69.3067 207.887 69.648C207.321 69.9787 206.66 70.144 205.903 70.144C205.124 70.144 204.415 69.952 203.775 69.568C203.145 69.184 202.649 68.6453 202.287 67.952C201.924 67.2587 201.743 66.4693 201.743 65.584ZM209.167 65.6C209.167 64.9387 209.033 64.3627 208.767 63.872C208.5 63.3813 208.137 63.008 207.679 62.752C207.231 62.4853 206.735 62.352 206.191 62.352C205.647 62.352 205.151 62.48 204.703 62.736C204.255 62.992 203.897 63.3653 203.631 63.856C203.364 64.3467 203.231 64.9227 203.231 65.584C203.231 66.256 203.364 66.8427 203.631 67.344C203.897 67.8347 204.255 68.2133 204.703 68.48C205.151 68.736 205.647 68.864 206.191 68.864C206.735 68.864 207.231 68.736 207.679 68.48C208.137 68.2133 208.5 67.8347 208.767 67.344C209.033 66.8427 209.167 66.2613 209.167 65.6Z" fill="#3F3F3F"/>
<circle cx="190" cy="26" r="26" fill="#E9F5F7"/>
<g filter="url(#filter6_d_1170_7549)">
<path d="M189.998 46.1218C203.417 46.1218 210.122 37.1122 210.122 25.9984C210.122 14.8846 203.417 5.875 189.998 5.875C176.58 5.875 169.875 14.8846 169.875 25.9984C169.875 37.1122 176.58 46.1218 189.998 46.1218Z" fill="url(#paint34_radial_1170_7549)"/>
<path d="M189.998 46.1218C203.417 46.1218 210.122 37.1122 210.122 25.9984C210.122 14.8846 203.417 5.875 189.998 5.875C176.58 5.875 169.875 14.8846 169.875 25.9984C169.875 37.1122 176.58 46.1218 189.998 46.1218Z" fill="url(#paint35_radial_1170_7549)"/>
<path d="M189.998 46.1218C203.417 46.1218 210.122 37.1122 210.122 25.9984C210.122 14.8846 203.417 5.875 189.998 5.875C176.58 5.875 169.875 14.8846 169.875 25.9984C169.875 37.1122 176.58 46.1218 189.998 46.1218Z" fill="url(#paint36_radial_1170_7549)"/>
<path d="M189.998 46.1218C203.417 46.1218 210.122 37.1122 210.122 25.9984C210.122 14.8846 203.417 5.875 189.998 5.875C176.58 5.875 169.875 14.8846 169.875 25.9984C169.875 37.1122 176.58 46.1218 189.998 46.1218Z" fill="url(#paint37_radial_1170_7549)" fill-opacity="0.6"/>
<path d="M189.998 46.1218C203.417 46.1218 210.122 37.1122 210.122 25.9984C210.122 14.8846 203.417 5.875 189.998 5.875C176.58 5.875 169.875 14.8846 169.875 25.9984C169.875 37.1122 176.58 46.1218 189.998 46.1218Z" fill="url(#paint38_radial_1170_7549)"/>
<path d="M189.998 46.1218C203.417 46.1218 210.122 37.1122 210.122 25.9984C210.122 14.8846 203.417 5.875 189.998 5.875C176.58 5.875 169.875 14.8846 169.875 25.9984C169.875 37.1122 176.58 46.1218 189.998 46.1218Z" fill="url(#paint39_radial_1170_7549)"/>
<path d="M189.998 46.1218C203.417 46.1218 210.122 37.1122 210.122 25.9984C210.122 14.8846 203.417 5.875 189.998 5.875C176.58 5.875 169.875 14.8846 169.875 25.9984C169.875 37.1122 176.58 46.1218 189.998 46.1218Z" fill="url(#paint40_radial_1170_7549)"/>
<path d="M189.998 46.1218C203.417 46.1218 210.122 37.1122 210.122 25.9984C210.122 14.8846 203.417 5.875 189.998 5.875C176.58 5.875 169.875 14.8846 169.875 25.9984C169.875 37.1122 176.58 46.1218 189.998 46.1218Z" fill="url(#paint41_radial_1170_7549)"/>
</g>
<circle cx="179.962" cy="22.2918" r="6.71786" fill="url(#paint42_radial_1170_7549)"/>
<path d="M181.978 26.3226C185.317 26.3226 188.024 23.6157 188.024 20.2765C188.024 16.9374 185.317 14.2305 181.978 14.2305C178.639 14.2305 175.932 16.9374 175.932 20.2765C175.932 23.6157 178.639 26.3226 181.978 26.3226Z" fill="white"/>
<path d="M182.812 24.5625C185.194 24.5625 187.125 22.6317 187.125 20.25C187.125 17.8683 185.194 15.9375 182.812 15.9375C180.431 15.9375 178.5 17.8683 178.5 20.25C178.5 22.6317 180.431 24.5625 182.812 24.5625Z" fill="url(#paint43_linear_1170_7549)"/>
<ellipse cx="194.664" cy="23.0433" rx="6.10119" ry="6.10119" fill="url(#paint44_radial_1170_7549)"/>
<path d="M198.005 26.4329C201.374 26.4329 204.106 23.7013 204.106 20.3317C204.106 16.9621 201.374 14.2305 198.005 14.2305C194.635 14.2305 191.903 16.9621 191.903 20.3317C191.903 23.7013 194.635 26.4329 198.005 26.4329Z" fill="white"/>
<path d="M197.188 24.5625C199.569 24.5625 201.5 22.6317 201.5 20.25C201.5 17.8683 199.569 15.9375 197.188 15.9375C194.806 15.9375 192.875 17.8683 192.875 20.25C192.875 22.6317 194.806 24.5625 197.188 24.5625Z" fill="url(#paint45_linear_1170_7549)"/>
<path d="M190 33.5C183.5 33.5 182.5 30 182.5 30C182.5 30 184 33 190 33C196 33 197.5 30 197.5 30C197.5 30 196.519 33.5 190 33.5Z" fill="url(#paint46_radial_1170_7549)" stroke="url(#paint47_radial_1170_7549)" stroke-width="2" stroke-linejoin="round"/>
<path d="M249.008 60.032V63.76H253.072V64.96H249.008V68.8H253.552V70H247.552V58.832H253.552V60.032H249.008ZM260.331 70L258.251 66.736L256.251 70H254.731L257.563 65.648L254.731 61.232H256.379L258.459 64.48L260.443 61.232H261.963L259.147 65.568L261.979 70H260.331ZM262.868 65.6C262.868 64.6933 263.049 63.904 263.412 63.232C263.774 62.5493 264.276 62.0213 264.916 61.648C265.566 61.2747 266.308 61.088 267.14 61.088C268.217 61.088 269.102 61.3493 269.796 61.872C270.5 62.3947 270.964 63.12 271.188 64.048H269.62C269.47 63.5147 269.177 63.0933 268.74 62.784C268.313 62.4747 267.78 62.32 267.14 62.32C266.308 62.32 265.636 62.608 265.124 63.184C264.612 63.7493 264.356 64.5547 264.356 65.6C264.356 66.656 264.612 67.472 265.124 68.048C265.636 68.624 266.308 68.912 267.14 68.912C267.78 68.912 268.313 68.7627 268.74 68.464C269.166 68.1653 269.46 67.7387 269.62 67.184H271.188C270.953 68.08 270.484 68.8 269.78 69.344C269.076 69.8773 268.196 70.144 267.14 70.144C266.308 70.144 265.566 69.9573 264.916 69.584C264.276 69.2107 263.774 68.6827 263.412 68C263.049 67.3173 262.868 66.5173 262.868 65.6ZM281.13 65.28C281.13 65.5573 281.114 65.8507 281.082 66.16H274.074C274.128 67.024 274.421 67.7013 274.954 68.192C275.498 68.672 276.154 68.912 276.922 68.912C277.552 68.912 278.074 68.768 278.49 68.48C278.917 68.1813 279.216 67.7867 279.386 67.296H280.954C280.72 68.1387 280.25 68.8267 279.546 69.36C278.842 69.8827 277.968 70.144 276.922 70.144C276.09 70.144 275.344 69.9573 274.682 69.584C274.032 69.2107 273.52 68.6827 273.146 68C272.773 67.3067 272.586 66.5067 272.586 65.6C272.586 64.6933 272.768 63.8987 273.13 63.216C273.493 62.5333 274 62.0107 274.65 61.648C275.312 61.2747 276.069 61.088 276.922 61.088C277.754 61.088 278.49 61.2693 279.13 61.632C279.77 61.9947 280.261 62.496 280.602 63.136C280.954 63.7653 281.13 64.48 281.13 65.28ZM279.626 64.976C279.626 64.4213 279.504 63.9467 279.258 63.552C279.013 63.1467 278.677 62.8427 278.25 62.64C277.834 62.4267 277.37 62.32 276.858 62.32C276.122 62.32 275.493 62.5547 274.97 63.024C274.458 63.4933 274.165 64.144 274.09 64.976H279.626ZM284.508 58.16V70H283.052V58.16H284.508ZM288.446 58.16V70H286.99V58.16H288.446ZM298.927 65.28C298.927 65.5573 298.911 65.8507 298.879 66.16H291.871C291.925 67.024 292.218 67.7013 292.751 68.192C293.295 68.672 293.951 68.912 294.719 68.912C295.349 68.912 295.871 68.768 296.287 68.48C296.714 68.1813 297.013 67.7867 297.183 67.296H298.751C298.517 68.1387 298.047 68.8267 297.343 69.36C296.639 69.8827 295.765 70.144 294.719 70.144C293.887 70.144 293.141 69.9573 292.479 69.584C291.829 69.2107 291.317 68.6827 290.943 68C290.57 67.3067 290.383 66.5067 290.383 65.6C290.383 64.6933 290.565 63.8987 290.927 63.216C291.29 62.5333 291.797 62.0107 292.447 61.648C293.109 61.2747 293.866 61.088 294.719 61.088C295.551 61.088 296.287 61.2693 296.927 61.632C297.567 61.9947 298.058 62.496 298.399 63.136C298.751 63.7653 298.927 64.48 298.927 65.28ZM297.423 64.976C297.423 64.4213 297.301 63.9467 297.055 63.552C296.81 63.1467 296.474 62.8427 296.047 62.64C295.631 62.4267 295.167 62.32 294.655 62.32C293.919 62.32 293.29 62.5547 292.767 63.024C292.255 63.4933 291.962 64.144 291.887 64.976H297.423ZM305.121 61.072C306.188 61.072 307.052 61.3973 307.713 62.048C308.375 62.688 308.705 63.616 308.705 64.832V70H307.265V65.04C307.265 64.1653 307.047 63.4987 306.609 63.04C306.172 62.5707 305.575 62.336 304.817 62.336C304.049 62.336 303.436 62.576 302.977 63.056C302.529 63.536 302.305 64.2347 302.305 65.152V70H300.849V61.232H302.305V62.48C302.593 62.032 302.983 61.6853 303.473 61.44C303.975 61.1947 304.524 61.072 305.121 61.072ZM312.86 62.432V67.6C312.86 68.0267 312.95 68.3307 313.132 68.512C313.313 68.6827 313.628 68.768 314.076 68.768H315.148V70H313.836C313.025 70 312.417 69.8133 312.012 69.44C311.606 69.0667 311.404 68.4533 311.404 67.6V62.432H310.268V61.232H311.404V59.024H312.86V61.232H315.148V62.432H312.86Z" fill="#3F3F3F"/>
<circle cx="281" cy="26" r="26" fill="#E9F5F7"/>
<g filter="url(#filter7_d_1170_7549)">
<path d="M280.998 46.1218C294.417 46.1218 301.122 37.1122 301.122 25.9984C301.122 14.8846 294.417 5.875 280.998 5.875C267.58 5.875 260.875 14.8846 260.875 25.9984C260.875 37.1122 267.58 46.1218 280.998 46.1218Z" fill="url(#paint48_radial_1170_7549)"/>
<path d="M280.998 46.1218C294.417 46.1218 301.122 37.1122 301.122 25.9984C301.122 14.8846 294.417 5.875 280.998 5.875C267.58 5.875 260.875 14.8846 260.875 25.9984C260.875 37.1122 267.58 46.1218 280.998 46.1218Z" fill="url(#paint49_radial_1170_7549)"/>
<path d="M280.998 46.1218C294.417 46.1218 301.122 37.1122 301.122 25.9984C301.122 14.8846 294.417 5.875 280.998 5.875C267.58 5.875 260.875 14.8846 260.875 25.9984C260.875 37.1122 267.58 46.1218 280.998 46.1218Z" fill="url(#paint50_radial_1170_7549)"/>
<path d="M280.998 46.1218C294.417 46.1218 301.122 37.1122 301.122 25.9984C301.122 14.8846 294.417 5.875 280.998 5.875C267.58 5.875 260.875 14.8846 260.875 25.9984C260.875 37.1122 267.58 46.1218 280.998 46.1218Z" fill="url(#paint51_radial_1170_7549)" fill-opacity="0.6"/>
<path d="M280.998 46.1218C294.417 46.1218 301.122 37.1122 301.122 25.9984C301.122 14.8846 294.417 5.875 280.998 5.875C267.58 5.875 260.875 14.8846 260.875 25.9984C260.875 37.1122 267.58 46.1218 280.998 46.1218Z" fill="url(#paint52_radial_1170_7549)"/>
<path d="M280.998 46.1218C294.417 46.1218 301.122 37.1122 301.122 25.9984C301.122 14.8846 294.417 5.875 280.998 5.875C267.58 5.875 260.875 14.8846 260.875 25.9984C260.875 37.1122 267.58 46.1218 280.998 46.1218Z" fill="url(#paint53_radial_1170_7549)"/>
<path d="M280.998 46.1218C294.417 46.1218 301.122 37.1122 301.122 25.9984C301.122 14.8846 294.417 5.875 280.998 5.875C267.58 5.875 260.875 14.8846 260.875 25.9984C260.875 37.1122 267.58 46.1218 280.998 46.1218Z" fill="url(#paint54_radial_1170_7549)"/>
<path d="M280.998 46.1218C294.417 46.1218 301.122 37.1122 301.122 25.9984C301.122 14.8846 294.417 5.875 280.998 5.875C267.58 5.875 260.875 14.8846 260.875 25.9984C260.875 37.1122 267.58 46.1218 280.998 46.1218Z" fill="url(#paint55_radial_1170_7549)"/>
</g>
<g filter="url(#filter8_f_1170_7549)">
<path d="M263.101 29.7317C263.415 31.0345 264.319 33.5093 267.203 34.2235C267.633 34.3299 268.056 34.4074 268.48 34.4658C268.501 34.4686 268.521 34.471 268.542 34.4729C274.73 35.0529 278.822 29.8217 279.021 24.1305C279.038 23.6588 279.401 23.2599 279.873 23.2538C280.124 23.2506 280.385 23.2509 280.653 23.2556C281.123 23.2638 281.484 23.6615 281.501 24.1313C281.703 29.8223 285.79 35.053 291.98 34.4729C292 34.471 292.021 34.4686 292.042 34.4658C292.465 34.4074 292.888 34.3299 293.318 34.2235C297.14 33.2773 299.511 30.7655 300.723 28.0712C300.535 26.9314 300.267 25.8272 299.92 24.7674C299.557 27.9348 297.861 28.3348 293.318 29.4595C292.944 29.552 291.667 30.4429 291.285 30.4954C286.973 30.8997 285.76 28.0712 283.315 23.5549L283.315 23.5101C283.315 23.4893 283.315 23.4686 283.316 23.4479C283.474 23.4686 283.633 23.4911 283.793 23.5157L284.186 20.9635C284.641 20.3778 285.248 19.9169 285.949 19.6412C286.114 19.57 286.499 19.4084 287.69 19.1863C288.918 18.9573 292.198 18.9599 294.2 18.9615L294.647 18.9617C295.704 18.9617 296.664 19.2686 297.284 19.5493C296.777 18.8519 296.22 18.1933 295.611 17.578C295.295 17.5437 294.971 17.5242 294.647 17.5242L294.195 17.524C293.197 17.5232 291.863 17.5221 290.622 17.5503C289.42 17.5776 287.639 17.6542 286.891 17.7937C285.653 18.0245 285.154 18.2093 284.865 18.3328C284.07 18.6495 283.388 19.1377 282.849 19.7532C282.495 20.1579 281.993 20.4281 281.456 20.4043C280.593 20.366 279.782 20.3704 279.056 20.3998C278.521 20.4215 278.022 20.1524 277.67 19.7501C277.131 19.1361 276.45 18.649 275.656 18.3328C275.367 18.2093 274.868 18.0245 273.631 17.7937C272.882 17.6542 271.101 17.5776 269.899 17.5503C268.659 17.5221 267.324 17.5232 266.327 17.524L266.308 17.524C265.832 18.0014 265.386 18.5051 264.972 19.0331C265.26 18.9884 265.563 18.9617 265.875 18.9617L266.321 18.9615C268.323 18.9599 271.603 18.9573 272.832 19.1863C274.023 19.4084 274.408 19.57 274.573 19.6412C275.248 19.9068 275.836 20.3441 276.285 20.8993L276.776 23.5077C276.893 23.4856 277.037 23.4621 277.206 23.4387C277.206 23.4624 277.206 23.4862 277.206 23.5101L277.206 23.5549C277.464 29.6081 272.854 33.2565 268.542 32.8522C268.161 32.7997 267.789 32.7312 267.415 32.6386C264.11 31.8206 264.351 29.3933 263.415 27.0813C263.249 27.9305 263.176 28.8439 263.101 29.7317Z" fill="url(#paint56_linear_1170_7549)"/>
</g>
<path fill-rule="evenodd" clip-rule="evenodd" d="M276.394 16.8953C277.244 17.2339 277.965 17.7686 278.52 18.4453C278.791 18.7764 279.192 18.9899 279.619 18.9699C280.437 18.9317 281.37 18.9245 282.368 18.9751C282.798 18.9968 283.201 18.7824 283.473 18.4494C284.028 17.7708 284.751 17.2346 285.602 16.8953C285.891 16.7718 286.391 16.587 287.628 16.3562C288.377 16.2167 290.157 16.1401 291.36 16.1128C292.6 16.0846 293.934 16.0857 294.932 16.0865L295.384 16.0867C297.094 16.0867 298.781 16.6269 299.45 17.0301C300.954 17.7937 302.347 19.2537 302.447 21.7661C302.451 21.8036 302.454 21.8415 302.455 21.8796C302.573 25.7441 300.174 31.2713 294.056 32.786C293.625 32.8924 293.203 32.9699 292.779 33.0283C292.758 33.0311 292.738 33.0335 292.717 33.0354C286.466 33.6212 282.359 28.2805 282.233 22.5245C282.225 22.1485 281.936 21.8307 281.56 21.8216C281.17 21.8122 280.795 21.8121 280.44 21.8191C280.062 21.8264 279.772 22.1452 279.763 22.5227C279.64 28.2793 275.529 33.6211 269.279 33.0354C269.259 33.0335 269.238 33.0311 269.217 33.0283C268.793 32.9699 268.371 32.8924 267.941 32.786C261.823 31.2713 259.423 25.7441 259.541 21.8796C259.542 21.8415 259.545 21.8036 259.549 21.7661C259.649 19.2537 261.042 17.7937 262.547 17.0301C263.215 16.6269 264.902 16.0867 266.612 16.0867L267.064 16.0865C268.062 16.0857 269.396 16.0846 270.637 16.1128C271.839 16.1401 273.62 16.2167 274.368 16.3562C275.606 16.587 276.105 16.7718 276.394 16.8953ZM261.578 20.4872C261.937 19.6123 262.604 18.8973 263.502 18.3563C264.007 18.052 265.226 17.5242 266.612 17.5242L267.059 17.524C269.061 17.5224 272.341 17.5198 273.569 17.7488C274.76 17.9709 275.145 18.1325 275.31 18.2037C275.985 18.4693 276.573 18.9066 277.022 19.4618L277.513 22.0702C277.63 22.0481 277.775 22.0246 277.943 22.0012C277.943 22.0249 277.944 22.0487 277.944 22.0726L277.943 22.1174C278.202 28.1706 273.592 31.819 269.279 31.4147C268.898 31.3622 268.526 31.2937 268.152 31.2011C263.609 30.0764 261.702 26.4973 261.339 23.3299C261.283 22.8422 261.264 22.3641 261.277 21.9064L261.278 21.8935L261.28 21.8936L261.281 21.8796C261.301 21.3785 261.403 20.9138 261.578 20.4872ZM284.053 22.0104C284.053 22.0311 284.053 22.0518 284.053 22.0726L284.053 22.1174C283.795 28.1706 288.404 31.819 292.717 31.4147C293.098 31.3622 293.47 31.2937 293.844 31.2011C298.387 30.0764 300.294 26.4973 300.657 23.3299C300.713 22.8422 300.732 22.3641 300.719 21.9064L300.719 21.8935L300.716 21.8936L300.715 21.8796C300.695 21.3785 300.593 20.9138 300.418 20.4872C300.059 19.6123 299.392 18.8973 298.494 18.3563C297.99 18.052 296.77 17.5242 295.384 17.5242L294.937 17.524C292.936 17.5224 289.655 17.5198 288.427 17.7488C287.236 17.9709 286.851 18.1325 286.686 18.2037C285.985 18.4794 285.378 18.9403 284.923 19.526L284.53 22.0782C284.37 22.0536 284.211 22.0311 284.053 22.0104Z" fill="url(#paint57_radial_1170_7549)"/>
<path fill-rule="evenodd" clip-rule="evenodd" d="M276.394 16.8953C277.244 17.2339 277.965 17.7686 278.52 18.4453C278.791 18.7764 279.192 18.9899 279.619 18.9699C280.437 18.9317 281.37 18.9245 282.368 18.9751C282.798 18.9968 283.201 18.7824 283.473 18.4494C284.028 17.7708 284.751 17.2346 285.602 16.8953C285.891 16.7718 286.391 16.587 287.628 16.3562C288.377 16.2167 290.157 16.1401 291.36 16.1128C292.6 16.0846 293.934 16.0857 294.932 16.0865L295.384 16.0867C297.094 16.0867 298.781 16.6269 299.45 17.0301C300.954 17.7937 302.347 19.2537 302.447 21.7661C302.451 21.8036 302.454 21.8415 302.455 21.8796C302.573 25.7441 300.174 31.2713 294.056 32.786C293.625 32.8924 293.203 32.9699 292.779 33.0283C292.758 33.0311 292.738 33.0335 292.717 33.0354C286.466 33.6212 282.359 28.2805 282.233 22.5245C282.225 22.1485 281.936 21.8307 281.56 21.8216C281.17 21.8122 280.795 21.8121 280.44 21.8191C280.062 21.8264 279.772 22.1452 279.763 22.5227C279.64 28.2793 275.529 33.6211 269.279 33.0354C269.259 33.0335 269.238 33.0311 269.217 33.0283C268.793 32.9699 268.371 32.8924 267.941 32.786C261.823 31.2713 259.423 25.7441 259.541 21.8796C259.542 21.8415 259.545 21.8036 259.549 21.7661C259.649 19.2537 261.042 17.7937 262.547 17.0301C263.215 16.6269 264.902 16.0867 266.612 16.0867L267.064 16.0865C268.062 16.0857 269.396 16.0846 270.637 16.1128C271.839 16.1401 273.62 16.2167 274.368 16.3562C275.606 16.587 276.105 16.7718 276.394 16.8953ZM261.578 20.4872C261.937 19.6123 262.604 18.8973 263.502 18.3563C264.007 18.052 265.226 17.5242 266.612 17.5242L267.059 17.524C269.061 17.5224 272.341 17.5198 273.569 17.7488C274.76 17.9709 275.145 18.1325 275.31 18.2037C275.985 18.4693 276.573 18.9066 277.022 19.4618L277.513 22.0702C277.63 22.0481 277.775 22.0246 277.943 22.0012C277.943 22.0249 277.944 22.0487 277.944 22.0726L277.943 22.1174C278.202 28.1706 273.592 31.819 269.279 31.4147C268.898 31.3622 268.526 31.2937 268.152 31.2011C263.609 30.0764 261.702 26.4973 261.339 23.3299C261.283 22.8422 261.264 22.3641 261.277 21.9064L261.278 21.8935L261.28 21.8936L261.281 21.8796C261.301 21.3785 261.403 20.9138 261.578 20.4872ZM284.053 22.0104C284.053 22.0311 284.053 22.0518 284.053 22.0726L284.053 22.1174C283.795 28.1706 288.404 31.819 292.717 31.4147C293.098 31.3622 293.47 31.2937 293.844 31.2011C298.387 30.0764 300.294 26.4973 300.657 23.3299C300.713 22.8422 300.732 22.3641 300.719 21.9064L300.719 21.8935L300.716 21.8936L300.715 21.8796C300.695 21.3785 300.593 20.9138 300.418 20.4872C300.059 19.6123 299.392 18.8973 298.494 18.3563C297.99 18.052 296.77 17.5242 295.384 17.5242L294.937 17.524C292.936 17.5224 289.655 17.5198 288.427 17.7488C287.236 17.9709 286.851 18.1325 286.686 18.2037C285.985 18.4794 285.378 18.9403 284.923 19.526L284.53 22.0782C284.37 22.0536 284.211 22.0311 284.053 22.0104Z" fill="url(#paint58_radial_1170_7549)"/>
<path fill-rule="evenodd" clip-rule="evenodd" d="M276.394 16.8953C277.244 17.2339 277.965 17.7686 278.52 18.4453C278.791 18.7764 279.192 18.9899 279.619 18.9699C280.437 18.9317 281.37 18.9245 282.368 18.9751C282.798 18.9968 283.201 18.7824 283.473 18.4494C284.028 17.7708 284.751 17.2346 285.602 16.8953C285.891 16.7718 286.391 16.587 287.628 16.3562C288.377 16.2167 290.157 16.1401 291.36 16.1128C292.6 16.0846 293.934 16.0857 294.932 16.0865L295.384 16.0867C297.094 16.0867 298.781 16.6269 299.45 17.0301C300.954 17.7937 302.347 19.2537 302.447 21.7661C302.451 21.8036 302.454 21.8415 302.455 21.8796C302.573 25.7441 300.174 31.2713 294.056 32.786C293.625 32.8924 293.203 32.9699 292.779 33.0283C292.758 33.0311 292.738 33.0335 292.717 33.0354C286.466 33.6212 282.359 28.2805 282.233 22.5245C282.225 22.1485 281.936 21.8307 281.56 21.8216C281.17 21.8122 280.795 21.8121 280.44 21.8191C280.062 21.8264 279.772 22.1452 279.763 22.5227C279.64 28.2793 275.529 33.6211 269.279 33.0354C269.259 33.0335 269.238 33.0311 269.217 33.0283C268.793 32.9699 268.371 32.8924 267.941 32.786C261.823 31.2713 259.423 25.7441 259.541 21.8796C259.542 21.8415 259.545 21.8036 259.549 21.7661C259.649 19.2537 261.042 17.7937 262.547 17.0301C263.215 16.6269 264.902 16.0867 266.612 16.0867L267.064 16.0865C268.062 16.0857 269.396 16.0846 270.637 16.1128C271.839 16.1401 273.62 16.2167 274.368 16.3562C275.606 16.587 276.105 16.7718 276.394 16.8953ZM261.578 20.4872C261.937 19.6123 262.604 18.8973 263.502 18.3563C264.007 18.052 265.226 17.5242 266.612 17.5242L267.059 17.524C269.061 17.5224 272.341 17.5198 273.569 17.7488C274.76 17.9709 275.145 18.1325 275.31 18.2037C275.985 18.4693 276.573 18.9066 277.022 19.4618L277.513 22.0702C277.63 22.0481 277.775 22.0246 277.943 22.0012C277.943 22.0249 277.944 22.0487 277.944 22.0726L277.943 22.1174C278.202 28.1706 273.592 31.819 269.279 31.4147C268.898 31.3622 268.526 31.2937 268.152 31.2011C263.609 30.0764 261.702 26.4973 261.339 23.3299C261.283 22.8422 261.264 22.3641 261.277 21.9064L261.278 21.8935L261.28 21.8936L261.281 21.8796C261.301 21.3785 261.403 20.9138 261.578 20.4872ZM284.053 22.0104C284.053 22.0311 284.053 22.0518 284.053 22.0726L284.053 22.1174C283.795 28.1706 288.404 31.819 292.717 31.4147C293.098 31.3622 293.47 31.2937 293.844 31.2011C298.387 30.0764 300.294 26.4973 300.657 23.3299C300.713 22.8422 300.732 22.3641 300.719 21.9064L300.719 21.8935L300.716 21.8936L300.715 21.8796C300.695 21.3785 300.593 20.9138 300.418 20.4872C300.059 19.6123 299.392 18.8973 298.494 18.3563C297.99 18.052 296.77 17.5242 295.384 17.5242L294.937 17.524C292.936 17.5224 289.655 17.5198 288.427 17.7488C287.236 17.9709 286.851 18.1325 286.686 18.2037C285.985 18.4794 285.378 18.9403 284.923 19.526L284.53 22.0782C284.37 22.0536 284.211 22.0311 284.053 22.0104Z" fill="url(#paint59_radial_1170_7549)"/>
<path d="M263.502 18.3563C264.007 18.052 265.226 17.5242 266.612 17.5242C266.752 17.5242 266.902 17.5241 267.059 17.524C269.061 17.5224 272.341 17.5198 273.57 17.7488C274.761 17.9709 275.146 18.1325 275.31 18.2037C276.853 18.8107 277.944 20.3146 277.944 22.0726L277.944 22.1174C278.202 28.1706 273.592 31.819 269.28 31.4147C268.898 31.3622 268.526 31.2937 268.152 31.2011C262.903 29.9015 261.173 25.3248 261.278 21.8929L261.281 21.8936C261.337 20.3582 262.163 19.1636 263.502 18.3563Z" fill="url(#paint60_radial_1170_7549)"/>
<path d="M263.502 18.3563C264.007 18.052 265.226 17.5242 266.612 17.5242C266.752 17.5242 266.902 17.5241 267.059 17.524C269.061 17.5224 272.341 17.5198 273.57 17.7488C274.761 17.9709 275.146 18.1325 275.31 18.2037C276.853 18.8107 277.944 20.3146 277.944 22.0726L277.944 22.1174C278.202 28.1706 273.592 31.819 269.28 31.4147C268.898 31.3622 268.526 31.2937 268.152 31.2011C262.903 29.9015 261.173 25.3248 261.278 21.8929L261.281 21.8936C261.337 20.3582 262.163 19.1636 263.502 18.3563Z" fill="url(#paint61_radial_1170_7549)"/>
<path d="M263.502 18.3563C264.007 18.052 265.226 17.5242 266.612 17.5242C266.752 17.5242 266.902 17.5241 267.059 17.524C269.061 17.5224 272.341 17.5198 273.57 17.7488C274.761 17.9709 275.146 18.1325 275.31 18.2037C276.853 18.8107 277.944 20.3146 277.944 22.0726L277.944 22.1174C278.202 28.1706 273.592 31.819 269.28 31.4147C268.898 31.3622 268.526 31.2937 268.152 31.2011C262.903 29.9015 261.173 25.3248 261.278 21.8929L261.281 21.8936C261.337 20.3582 262.163 19.1636 263.502 18.3563Z" fill="url(#paint62_radial_1170_7549)"/>
<path d="M263.502 18.3563C264.007 18.052 265.226 17.5242 266.612 17.5242C266.752 17.5242 266.902 17.5241 267.059 17.524C269.061 17.5224 272.341 17.5198 273.57 17.7488C274.761 17.9709 275.146 18.1325 275.31 18.2037C276.853 18.8107 277.944 20.3146 277.944 22.0726L277.944 22.1174C278.202 28.1706 273.592 31.819 269.28 31.4147C268.898 31.3622 268.526 31.2937 268.152 31.2011C262.903 29.9015 261.173 25.3248 261.278 21.8929L261.281 21.8936C261.337 20.3582 262.163 19.1636 263.502 18.3563Z" fill="url(#paint63_radial_1170_7549)"/>
<ellipse cx="274.011" cy="21.8928" rx="2.14789" ry="2.70121" transform="rotate(-25.8832 274.011 21.8928)" fill="url(#paint64_linear_1170_7549)"/>
<path d="M298.494 18.3563C297.989 18.052 296.77 17.5242 295.384 17.5242C295.244 17.5242 295.094 17.5241 294.937 17.524C292.935 17.5224 289.655 17.5198 288.426 17.7488C287.236 17.9709 286.85 18.1325 286.686 18.2037C285.143 18.8107 284.052 20.3146 284.052 22.0726L284.052 22.1174C283.794 28.1706 288.404 31.819 292.716 31.4147C293.098 31.3622 293.47 31.2937 293.844 31.2011C299.093 29.9015 300.823 25.3248 300.718 21.8929L300.715 21.8936C300.659 20.3582 299.833 19.1636 298.494 18.3563Z" fill="url(#paint65_radial_1170_7549)"/>
<path d="M298.494 18.3563C297.989 18.052 296.77 17.5242 295.384 17.5242C295.244 17.5242 295.094 17.5241 294.937 17.524C292.935 17.5224 289.655 17.5198 288.426 17.7488C287.236 17.9709 286.85 18.1325 286.686 18.2037C285.143 18.8107 284.052 20.3146 284.052 22.0726L284.052 22.1174C283.794 28.1706 288.404 31.819 292.716 31.4147C293.098 31.3622 293.47 31.2937 293.844 31.2011C299.093 29.9015 300.823 25.3248 300.718 21.8929L300.715 21.8936C300.659 20.3582 299.833 19.1636 298.494 18.3563Z" fill="url(#paint66_radial_1170_7549)"/>
<path d="M298.494 18.3563C297.989 18.052 296.77 17.5242 295.384 17.5242C295.244 17.5242 295.094 17.5241 294.937 17.524C292.935 17.5224 289.655 17.5198 288.426 17.7488C287.236 17.9709 286.85 18.1325 286.686 18.2037C285.143 18.8107 284.052 20.3146 284.052 22.0726L284.052 22.1174C283.794 28.1706 288.404 31.819 292.716 31.4147C293.098 31.3622 293.47 31.2937 293.844 31.2011C299.093 29.9015 300.823 25.3248 300.718 21.8929L300.715 21.8936C300.659 20.3582 299.833 19.1636 298.494 18.3563Z" fill="url(#paint67_radial_1170_7549)"/>
<path d="M298.494 18.3563C297.989 18.052 296.77 17.5242 295.384 17.5242C295.244 17.5242 295.094 17.5241 294.937 17.524C292.935 17.5224 289.655 17.5198 288.426 17.7488C287.236 17.9709 286.85 18.1325 286.686 18.2037C285.143 18.8107 284.052 20.3146 284.052 22.0726L284.052 22.1174C283.794 28.1706 288.404 31.819 292.716 31.4147C293.098 31.3622 293.47 31.2937 293.844 31.2011C299.093 29.9015 300.823 25.3248 300.718 21.8929L300.715 21.8936C300.659 20.3582 299.833 19.1636 298.494 18.3563Z" fill="url(#paint68_radial_1170_7549)"/>
<ellipse cx="297.059" cy="21.8928" rx="2.14789" ry="2.70121" transform="rotate(-25.8832 297.059 21.8928)" fill="url(#paint69_linear_1170_7549)"/>
<path d="M274.282 36.0625C274.282 36.0625 276.297 38.9375 280.998 38.9375C285.699 38.9375 287.714 36.0625 287.714 36.0625" stroke="url(#paint70_radial_1170_7549)" stroke-width="2.3" stroke-linecap="round" stroke-linejoin="round"/>
<defs>
<filter id="filter0_d_1170_7549" x="79.25" y="0.125" width="57.5" height="57.5" filterUnits="userSpaceOnUse" color-interpolation-filters="sRGB">
<feFlood flood-opacity="0" result="BackgroundImageFix"/>
<feColorMatrix in="SourceAlpha" type="matrix" values="0 0 0 0 0 0 0 0 0 0 0 0 0 0 0 0 0 0 127 0" result="hardAlpha"/>
<feOffset dy="2.875"/>
<feGaussianBlur stdDeviation="2.875"/>
<feComposite in2="hardAlpha" operator="out"/>
<feColorMatrix type="matrix" values="0 0 0 0 0 0 0 0 0 0 0 0 0 0 0 0 0 0 0.25 0"/>
<feBlend mode="normal" in2="BackgroundImageFix" result="effect1_dropShadow_1170_7549"/>
<feBlend mode="normal" in="SourceGraphic" in2="effect1_dropShadow_1170_7549" result="shape"/>
</filter>
<filter id="filter1_d_1170_7549" x="-2.75" y="0.125" width="57.5" height="57.5" filterUnits="userSpaceOnUse" color-interpolation-filters="sRGB">
<feFlood flood-opacity="0" result="BackgroundImageFix"/>
<feColorMatrix in="SourceAlpha" type="matrix" values="0 0 0 0 0 0 0 0 0 0 0 0 0 0 0 0 0 0 127 0" result="hardAlpha"/>
<feOffset dy="2.875"/>
<feGaussianBlur stdDeviation="2.875"/>
<feComposite in2="hardAlpha" operator="out"/>
<feColorMatrix type="matrix" values="0 0 0 0 0 0 0 0 0 0 0 0 0 0 0 0 0 0 0.25 0"/>
<feBlend mode="normal" in2="BackgroundImageFix" result="effect1_dropShadow_1170_7549"/>
<feBlend mode="normal" in="SourceGraphic" in2="effect1_dropShadow_1170_7549" result="shape"/>
</filter>
<filter id="filter2_f_1170_7549" x="14" y="21.8164" width="9.625" height="9.6189" filterUnits="userSpaceOnUse" color-interpolation-filters="sRGB">
<feFlood flood-opacity="0" result="BackgroundImageFix"/>
<feBlend mode="normal" in="SourceGraphic" in2="BackgroundImageFix" result="shape"/>
<feGaussianBlur stdDeviation="0.25" result="effect1_foregroundBlur_1170_7549"/>
</filter>
<filter id="filter3_f_1170_7549" x="27.5215" y="21.8164" width="9.625" height="9.6189" filterUnits="userSpaceOnUse" color-interpolation-filters="sRGB">
<feFlood flood-opacity="0" result="BackgroundImageFix"/>
<feBlend mode="normal" in="SourceGraphic" in2="BackgroundImageFix" result="shape"/>
<feGaussianBlur stdDeviation="0.25" result="effect1_foregroundBlur_1170_7549"/>
</filter>
<filter id="filter4_f_1170_7549" x="19.2549" y="33.4692" width="15.2861" height="7.84692" filterUnits="userSpaceOnUse" color-interpolation-filters="sRGB">
<feFlood flood-opacity="0" result="BackgroundImageFix"/>
<feBlend mode="normal" in="SourceGraphic" in2="BackgroundImageFix" result="shape"/>
<feGaussianBlur stdDeviation="0.75" result="effect1_foregroundBlur_1170_7549"/>
</filter>
<filter id="filter5_f_1170_7549" x="13.29" y="33.6956" width="25.4238" height="5.45898" filterUnits="userSpaceOnUse" color-interpolation-filters="sRGB">
<feFlood flood-opacity="0" result="BackgroundImageFix"/>
<feBlend mode="normal" in="SourceGraphic" in2="BackgroundImageFix" result="shape"/>
<feGaussianBlur stdDeviation="0.375" result="effect1_foregroundBlur_1170_7549"/>
</filter>
<filter id="filter6_d_1170_7549" x="161.25" y="0.125" width="57.5" height="57.5" filterUnits="userSpaceOnUse" color-interpolation-filters="sRGB">
<feFlood flood-opacity="0" result="BackgroundImageFix"/>
<feColorMatrix in="SourceAlpha" type="matrix" values="0 0 0 0 0 0 0 0 0 0 0 0 0 0 0 0 0 0 127 0" result="hardAlpha"/>
<feOffset dy="2.875"/>
<feGaussianBlur stdDeviation="2.875"/>
<feComposite in2="hardAlpha" operator="out"/>
<feColorMatrix type="matrix" values="0 0 0 0 0 0 0 0 0 0 0 0 0 0 0 0 0 0 0.25 0"/>
<feBlend mode="normal" in2="BackgroundImageFix" result="effect1_dropShadow_1170_7549"/>
<feBlend mode="normal" in="SourceGraphic" in2="effect1_dropShadow_1170_7549" result="shape"/>
</filter>
<filter id="filter7_d_1170_7549" x="252.25" y="0.125" width="57.5" height="57.5" filterUnits="userSpaceOnUse" color-interpolation-filters="sRGB">
<feFlood flood-opacity="0" result="BackgroundImageFix"/>
<feColorMatrix in="SourceAlpha" type="matrix" values="0 0 0 0 0 0 0 0 0 0 0 0 0 0 0 0 0 0 127 0" result="hardAlpha"/>
<feOffset dy="2.875"/>
<feGaussianBlur stdDeviation="2.875"/>
<feComposite in2="hardAlpha" operator="out"/>
<feColorMatrix type="matrix" values="0 0 0 0 0 0 0 0 0 0 0 0 0 0 0 0 0 0 0.25 0"/>
<feBlend mode="normal" in2="BackgroundImageFix" result="effect1_dropShadow_1170_7549"/>
<feBlend mode="normal" in="SourceGraphic" in2="effect1_dropShadow_1170_7549" result="shape"/>
</filter>
<filter id="filter8_f_1170_7549" x="261.721" y="16.1437" width="40.383" height="19.7534" filterUnits="userSpaceOnUse" color-interpolation-filters="sRGB">
<feFlood flood-opacity="0" result="BackgroundImageFix"/>
<feBlend mode="normal" in="SourceGraphic" in2="BackgroundImageFix" result="shape"/>
<feGaussianBlur stdDeviation="0.69" result="effect1_foregroundBlur_1170_7549"/>
</filter>
<radialGradient id="paint0_radial_1170_7549" cx="0" cy="0" r="1" gradientUnits="userSpaceOnUse" gradientTransform="translate(121.656 15.9375) rotate(132.839) scale(53.911)">
<stop stop-color="#FFF478"/>
<stop offset="0.474827" stop-color="#FFB02E"/>
<stop offset="1" stop-color="#F70A8D"/>
</radialGradient>
<radialGradient id="paint1_radial_1170_7549" cx="0" cy="0" r="1" gradientUnits="userSpaceOnUse" gradientTransform="translate(121.656 15.9375) rotate(131.878) scale(55.9887)">
<stop stop-color="#FFF478"/>
<stop offset="0.474827" stop-color="#FFB02E"/>
<stop offset="1" stop-color="#F70A8D"/>
</radialGradient>
<radialGradient id="paint2_radial_1170_7549" cx="0" cy="0" r="1" gradientUnits="userSpaceOnUse" gradientTransform="translate(108 20.9688) rotate(101.31) scale(25.6544 32.8585)">
<stop offset="0.787821" stop-color="#F59639" stop-opacity="0"/>
<stop offset="0.972509" stop-color="#FF7DCE"/>
</radialGradient>
<radialGradient id="paint3_radial_1170_7549" cx="0" cy="0" r="1" gradientUnits="userSpaceOnUse" gradientTransform="translate(110.875 23.125) rotate(135) scale(58.955)">
<stop offset="0.314853" stop-opacity="0"/>
<stop offset="1"/>
</radialGradient>
<radialGradient id="paint4_radial_1170_7549" cx="0" cy="0" r="1" gradientUnits="userSpaceOnUse" gradientTransform="translate(108 27.4375) rotate(77.692) scale(40.4612)">
<stop offset="0.507903" stop-color="#7D6133" stop-opacity="0"/>
<stop offset="1" stop-color="#715B32"/>
</radialGradient>
<radialGradient id="paint5_radial_1170_7549" cx="0" cy="0" r="1" gradientUnits="userSpaceOnUse" gradientTransform="translate(108.719 26.7188) rotate(55.7131) scale(19.1382 13.8723)">
<stop stop-color="#FFB849"/>
<stop offset="1" stop-color="#FFB847" stop-opacity="0"/>
</radialGradient>
<radialGradient id="paint6_radial_1170_7549" cx="0" cy="0" r="1" gradientUnits="userSpaceOnUse" gradientTransform="translate(114.469 28.875) rotate(9.86581) scale(16.7794)">
<stop stop-color="#FFA64B"/>
<stop offset="0.900412" stop-color="#FFAE46" stop-opacity="0"/>
</radialGradient>
<radialGradient id="paint7_radial_1170_7549" cx="0" cy="0" r="1" gradientUnits="userSpaceOnUse" gradientTransform="translate(110.156 24.5625) rotate(43.9708) scale(84.8886)">
<stop offset="0.185425" stop-opacity="0"/>
<stop offset="1" stop-opacity="0.4"/>
</radialGradient>
<linearGradient id="paint8_linear_1170_7549" x1="101.1" y1="27.0781" x2="100.762" y2="29.1062" gradientUnits="userSpaceOnUse">
<stop stop-color="#52383E"/>
<stop offset="1" stop-color="#432A35"/>
</linearGradient>
<linearGradient id="paint9_linear_1170_7549" x1="114.9" y1="27.0781" x2="115.238" y2="29.1062" gradientUnits="userSpaceOnUse">
<stop stop-color="#52383E"/>
<stop offset="1" stop-color="#432A35"/>
</linearGradient>
<linearGradient id="paint10_linear_1170_7549" x1="108" y1="33.0815" x2="108" y2="36.0464" gradientUnits="userSpaceOnUse">
<stop stop-color="#4F3C43"/>
<stop offset="1" stop-color="#512756"/>
</linearGradient>
<radialGradient id="paint11_radial_1170_7549" cx="0" cy="0" r="1" gradientUnits="userSpaceOnUse" gradientTransform="translate(39.6562 15.9375) rotate(132.839) scale(53.911)">
<stop stop-color="#FFF478"/>
<stop offset="0.474827" stop-color="#FFB02E"/>
<stop offset="1" stop-color="#F70A8D"/>
</radialGradient>
<radialGradient id="paint12_radial_1170_7549" cx="0" cy="0" r="1" gradientUnits="userSpaceOnUse" gradientTransform="translate(39.6563 15.9375) rotate(131.878) scale(55.9887)">
<stop stop-color="#FFF478"/>
<stop offset="0.474827" stop-color="#FFB02E"/>
<stop offset="1" stop-color="#F70A8D"/>
</radialGradient>
<radialGradient id="paint13_radial_1170_7549" cx="0" cy="0" r="1" gradientUnits="userSpaceOnUse" gradientTransform="translate(26 20.9688) rotate(101.31) scale(25.6544 32.8585)">
<stop offset="0.787821" stop-color="#F59639" stop-opacity="0"/>
<stop offset="0.972509" stop-color="#FF7DCE"/>
</radialGradient>
<radialGradient id="paint14_radial_1170_7549" cx="0" cy="0" r="1" gradientUnits="userSpaceOnUse" gradientTransform="translate(28.875 23.125) rotate(135) scale(58.955)">
<stop offset="0.314853" stop-opacity="0"/>
<stop offset="1"/>
</radialGradient>
<radialGradient id="paint15_radial_1170_7549" cx="0" cy="0" r="1" gradientUnits="userSpaceOnUse" gradientTransform="translate(26 27.4375) rotate(77.692) scale(40.4612)">
<stop offset="0.507903" stop-color="#7D6133" stop-opacity="0"/>
<stop offset="1" stop-color="#715B32"/>
</radialGradient>
<radialGradient id="paint16_radial_1170_7549" cx="0" cy="0" r="1" gradientUnits="userSpaceOnUse" gradientTransform="translate(26.7187 26.7188) rotate(55.7131) scale(19.1382 13.8723)">
<stop stop-color="#FFB849"/>
<stop offset="1" stop-color="#FFB847" stop-opacity="0"/>
</radialGradient>
<radialGradient id="paint17_radial_1170_7549" cx="0" cy="0" r="1" gradientUnits="userSpaceOnUse" gradientTransform="translate(32.4687 28.875) rotate(9.86581) scale(16.7794)">
<stop stop-color="#FFA64B"/>
<stop offset="0.900412" stop-color="#FFAE46" stop-opacity="0"/>
</radialGradient>
<radialGradient id="paint18_radial_1170_7549" cx="0" cy="0" r="1" gradientUnits="userSpaceOnUse" gradientTransform="translate(28.1562 24.5625) rotate(43.9708) scale(84.8886)">
<stop offset="0.185425" stop-opacity="0"/>
<stop offset="1" stop-opacity="0.4"/>
</radialGradient>
<radialGradient id="paint19_radial_1170_7549" cx="0" cy="0" r="1" gradientUnits="userSpaceOnUse" gradientTransform="translate(17.0602 22.3164) rotate(110.225) scale(10.9152 14.2662)">
<stop stop-color="#9F5E0F"/>
<stop offset="0.889024" stop-color="#9F5E0F" stop-opacity="0"/>
</radialGradient>
<radialGradient id="paint20_radial_1170_7549" cx="0" cy="0" r="1" gradientUnits="userSpaceOnUse" gradientTransform="translate(17.0602 22.3164) rotate(110.225) scale(10.9152 14.2662)">
<stop stop-color="#9F5E0F"/>
<stop offset="0.889024" stop-color="#9F5E0F" stop-opacity="0"/>
</radialGradient>
<linearGradient id="paint21_linear_1170_7549" x1="18.2061" y1="31.3651" x2="14.4997" y2="23.6834" gradientUnits="userSpaceOnUse">
<stop offset="0.24955" stop-color="#482641"/>
<stop offset="0.406361" stop-color="#503A4A"/>
<stop offset="0.511203" stop-color="#482641"/>
</linearGradient>
<linearGradient id="paint22_linear_1170_7549" x1="15.7354" y1="26.1991" x2="19.1719" y2="19.4608" gradientUnits="userSpaceOnUse">
<stop offset="0.24955" stop-color="#482641"/>
<stop offset="0.406361" stop-color="#503A4A"/>
<stop offset="0.511203" stop-color="#482641"/>
</linearGradient>
<radialGradient id="paint23_radial_1170_7549" cx="0" cy="0" r="1" gradientUnits="userSpaceOnUse" gradientTransform="translate(41.5654 32.3789) rotate(-135.995) scale(19.2046 25.1004)">
<stop stop-color="#E9830A"/>
<stop offset="0.801655" stop-color="#F08B13" stop-opacity="0"/>
</radialGradient>
<radialGradient id="paint24_radial_1170_7549" cx="0" cy="0" r="1" gradientUnits="userSpaceOnUse" gradientTransform="translate(41.5654 32.3789) rotate(-135.995) scale(19.2046 25.1004)">
<stop stop-color="#E9830A"/>
<stop offset="0.801655" stop-color="#F08B13" stop-opacity="0"/>
</radialGradient>
<linearGradient id="paint25_linear_1170_7549" x1="33.7715" y1="31.3651" x2="37.4778" y2="23.6834" gradientUnits="userSpaceOnUse">
<stop offset="0.24955" stop-color="#482641"/>
<stop offset="0.406361" stop-color="#503A4A"/>
<stop offset="0.511203" stop-color="#482641"/>
</linearGradient>
<linearGradient id="paint26_linear_1170_7549" x1="36.2422" y1="26.1991" x2="32.8057" y2="19.4608" gradientUnits="userSpaceOnUse">
<stop offset="0.24955" stop-color="#482641"/>
<stop offset="0.406361" stop-color="#503A4A"/>
<stop offset="0.511203" stop-color="#482641"/>
</linearGradient>
<linearGradient id="paint27_linear_1170_7549" x1="13.6837" y1="37.2385" x2="19.1633" y2="30.6902" gradientUnits="userSpaceOnUse">
<stop stop-color="#482641"/>
<stop offset="0.322917" stop-color="#57434E"/>
<stop offset="0.4375" stop-color="#483637"/>
</linearGradient>
<linearGradient id="paint28_linear_1170_7549" x1="19.8838" y1="38.4994" x2="15.6786" y2="33.3686" gradientUnits="userSpaceOnUse">
<stop offset="0.0197505" stop-color="#482641"/>
<stop offset="0.322917" stop-color="#57434E"/>
<stop offset="0.46422" stop-color="#483637"/>
</linearGradient>
<linearGradient id="paint29_linear_1170_7549" x1="21.5889" y1="36.6238" x2="25.9139" y2="31.5616" gradientUnits="userSpaceOnUse">
<stop offset="0.0197505" stop-color="#482641"/>
<stop offset="0.322917" stop-color="#57434E"/>
<stop offset="0.46422" stop-color="#483637"/>
</linearGradient>
<linearGradient id="paint30_linear_1170_7549" x1="30.4141" y1="36.6238" x2="26.089" y2="31.5616" gradientUnits="userSpaceOnUse">
<stop offset="0.0197505" stop-color="#482641"/>
<stop offset="0.322917" stop-color="#57434E"/>
<stop offset="0.46422" stop-color="#483637"/>
</linearGradient>
<linearGradient id="paint31_linear_1170_7549" x1="29.8398" y1="36.6238" x2="34.1649" y2="31.5616" gradientUnits="userSpaceOnUse">
<stop offset="0.0197505" stop-color="#482641"/>
<stop offset="0.322917" stop-color="#57434E"/>
<stop offset="0.46422" stop-color="#483637"/>
</linearGradient>
<linearGradient id="paint32_linear_1170_7549" x1="38.6804" y1="36.6232" x2="34.3553" y2="31.5609" gradientUnits="userSpaceOnUse">
<stop offset="0.0197505" stop-color="#482641"/>
<stop offset="0.322917" stop-color="#57434E"/>
<stop offset="0.46422" stop-color="#483637"/>
</linearGradient>
<linearGradient id="paint33_linear_1170_7549" x1="26.002" y1="39.7425" x2="26.002" y2="37.5086" gradientUnits="userSpaceOnUse">
<stop stop-color="#53265E"/>
<stop offset="1" stop-color="#53265E" stop-opacity="0"/>
</linearGradient>
<radialGradient id="paint34_radial_1170_7549" cx="0" cy="0" r="1" gradientUnits="userSpaceOnUse" gradientTransform="translate(203.656 15.9375) rotate(132.839) scale(53.911)">
<stop stop-color="#FFF478"/>
<stop offset="0.474827" stop-color="#FFB02E"/>
<stop offset="1" stop-color="#F70A8D"/>
</radialGradient>
<radialGradient id="paint35_radial_1170_7549" cx="0" cy="0" r="1" gradientUnits="userSpaceOnUse" gradientTransform="translate(203.656 15.9375) rotate(131.878) scale(55.9887)">
<stop stop-color="#FFF478"/>
<stop offset="0.474827" stop-color="#FFB02E"/>
<stop offset="1" stop-color="#F70A8D"/>
</radialGradient>
<radialGradient id="paint36_radial_1170_7549" cx="0" cy="0" r="1" gradientUnits="userSpaceOnUse" gradientTransform="translate(190 20.9688) rotate(101.31) scale(25.6544 32.8585)">
<stop offset="0.787821" stop-color="#F59639" stop-opacity="0"/>
<stop offset="0.972509" stop-color="#FF7DCE"/>
</radialGradient>
<radialGradient id="paint37_radial_1170_7549" cx="0" cy="0" r="1" gradientUnits="userSpaceOnUse" gradientTransform="translate(192.875 23.125) rotate(135) scale(58.955)">
<stop offset="0.314853" stop-opacity="0"/>
<stop offset="1"/>
</radialGradient>
<radialGradient id="paint38_radial_1170_7549" cx="0" cy="0" r="1" gradientUnits="userSpaceOnUse" gradientTransform="translate(190 27.4375) rotate(77.692) scale(40.4612)">
<stop offset="0.507903" stop-color="#7D6133" stop-opacity="0"/>
<stop offset="1" stop-color="#715B32"/>
</radialGradient>
<radialGradient id="paint39_radial_1170_7549" cx="0" cy="0" r="1" gradientUnits="userSpaceOnUse" gradientTransform="translate(190.719 26.7188) rotate(55.7131) scale(19.1382 13.8723)">
<stop stop-color="#FFB849"/>
<stop offset="1" stop-color="#FFB847" stop-opacity="0"/>
</radialGradient>
<radialGradient id="paint40_radial_1170_7549" cx="0" cy="0" r="1" gradientUnits="userSpaceOnUse" gradientTransform="translate(196.469 28.875) rotate(9.86581) scale(16.7794)">
<stop stop-color="#FFA64B"/>
<stop offset="0.900412" stop-color="#FFAE46" stop-opacity="0"/>
</radialGradient>
<radialGradient id="paint41_radial_1170_7549" cx="0" cy="0" r="1" gradientUnits="userSpaceOnUse" gradientTransform="translate(192.156 24.5625) rotate(43.9708) scale(84.8886)">
<stop offset="0.185425" stop-opacity="0"/>
<stop offset="1" stop-opacity="0.4"/>
</radialGradient>
<radialGradient id="paint42_radial_1170_7549" cx="0" cy="0" r="1" gradientUnits="userSpaceOnUse" gradientTransform="translate(185.187 17.0668) rotate(135) scale(13.0896 6.77472)">
<stop stop-color="#392108"/>
<stop offset="1" stop-color="#C87928" stop-opacity="0"/>
</radialGradient>
<linearGradient id="paint43_linear_1170_7549" x1="190.719" y1="14.5" x2="189.281" y2="24.5625" gradientUnits="userSpaceOnUse">
<stop stop-color="#553B3E"/>
<stop offset="1" stop-color="#3D2432"/>
</linearGradient>
<radialGradient id="paint44_radial_1170_7549" cx="0" cy="0" r="1" gradientUnits="userSpaceOnUse" gradientTransform="translate(199.409 18.298) rotate(135) scale(11.0252 6.22388)">
<stop stop-color="#392108"/>
<stop offset="1" stop-color="#C87928" stop-opacity="0"/>
</radialGradient>
<linearGradient id="paint45_linear_1170_7549" x1="190.719" y1="14.5" x2="189.281" y2="24.5625" gradientUnits="userSpaceOnUse">
<stop stop-color="#553B3E"/>
<stop offset="1" stop-color="#3D2432"/>
</linearGradient>
<radialGradient id="paint46_radial_1170_7549" cx="0" cy="0" r="1" gradientUnits="userSpaceOnUse" gradientTransform="translate(190 44.8125) rotate(-90) scale(15.8125 31.625)">
<stop stop-color="#F70A8D"/>
<stop offset="1" stop-color="#89029C"/>
</radialGradient>
<radialGradient id="paint47_radial_1170_7549" cx="0" cy="0" r="1" gradientUnits="userSpaceOnUse" gradientTransform="translate(190.029 29.0001) rotate(90) scale(5.49992 10.6143)">
<stop offset="0.34763" stop-color="#241A1A"/>
<stop offset="0.628228" stop-color="#57444A"/>
<stop offset="1" stop-color="#4E2553"/>
<stop offset="1" stop-color="#502A56"/>
</radialGradient>
<radialGradient id="paint48_radial_1170_7549" cx="0" cy="0" r="1" gradientUnits="userSpaceOnUse" gradientTransform="translate(294.656 15.9375) rotate(132.839) scale(53.911)">
<stop stop-color="#FFF478"/>
<stop offset="0.474827" stop-color="#FFB02E"/>
<stop offset="1" stop-color="#F70A8D"/>
</radialGradient>
<radialGradient id="paint49_radial_1170_7549" cx="0" cy="0" r="1" gradientUnits="userSpaceOnUse" gradientTransform="translate(294.656 15.9375) rotate(131.878) scale(55.9887)">
<stop stop-color="#FFF478"/>
<stop offset="0.474827" stop-color="#FFB02E"/>
<stop offset="1" stop-color="#F70A8D"/>
</radialGradient>
<radialGradient id="paint50_radial_1170_7549" cx="0" cy="0" r="1" gradientUnits="userSpaceOnUse" gradientTransform="translate(281 20.9688) rotate(101.31) scale(25.6544 32.8585)">
<stop offset="0.787821" stop-color="#F59639" stop-opacity="0"/>
<stop offset="0.972509" stop-color="#FF7DCE"/>
</radialGradient>
<radialGradient id="paint51_radial_1170_7549" cx="0" cy="0" r="1" gradientUnits="userSpaceOnUse" gradientTransform="translate(283.875 23.125) rotate(135) scale(58.955)">
<stop offset="0.314853" stop-opacity="0"/>
<stop offset="1"/>
</radialGradient>
<radialGradient id="paint52_radial_1170_7549" cx="0" cy="0" r="1" gradientUnits="userSpaceOnUse" gradientTransform="translate(281 27.4375) rotate(77.692) scale(40.4612)">
<stop offset="0.507903" stop-color="#7D6133" stop-opacity="0"/>
<stop offset="1" stop-color="#715B32"/>
</radialGradient>
<radialGradient id="paint53_radial_1170_7549" cx="0" cy="0" r="1" gradientUnits="userSpaceOnUse" gradientTransform="translate(281.719 26.7188) rotate(55.7131) scale(19.1382 13.8723)">
<stop stop-color="#FFB849"/>
<stop offset="1" stop-color="#FFB847" stop-opacity="0"/>
</radialGradient>
<radialGradient id="paint54_radial_1170_7549" cx="0" cy="0" r="1" gradientUnits="userSpaceOnUse" gradientTransform="translate(287.469 28.875) rotate(9.86581) scale(16.7794)">
<stop stop-color="#FFA64B"/>
<stop offset="0.900412" stop-color="#FFAE46" stop-opacity="0"/>
</radialGradient>
<radialGradient id="paint55_radial_1170_7549" cx="0" cy="0" r="1" gradientUnits="userSpaceOnUse" gradientTransform="translate(283.156 24.5625) rotate(43.9708) scale(84.8886)">
<stop offset="0.185425" stop-opacity="0"/>
<stop offset="1" stop-opacity="0.4"/>
</radialGradient>
<linearGradient id="paint56_linear_1170_7549" x1="290.611" y1="26.0204" x2="270.397" y2="33.7298" gradientUnits="userSpaceOnUse">
<stop stop-color="#E78F00"/>
<stop offset="1" stop-color="#D07000"/>
</linearGradient>
<radialGradient id="paint57_radial_1170_7549" cx="0" cy="0" r="1" gradientUnits="userSpaceOnUse" gradientTransform="translate(288.365 17.0188) rotate(78.8614) scale(17.6727 36.6221)">
<stop stop-color="#5F5B9B"/>
<stop offset="1" stop-color="#5C3085"/>
</radialGradient>
<radialGradient id="paint58_radial_1170_7549" cx="0" cy="0" r="1" gradientUnits="userSpaceOnUse" gradientTransform="translate(292.341 24.5818) rotate(78.0636) scale(7.92682 8.90502)">
<stop offset="0.776042" stop-color="#77579C"/>
<stop offset="0.9375" stop-color="#77579C" stop-opacity="0"/>
</radialGradient>
<radialGradient id="paint59_radial_1170_7549" cx="0" cy="0" r="1" gradientUnits="userSpaceOnUse" gradientTransform="translate(289.443 23.1282) rotate(-122.735) scale(6.72884 4.93934)">
<stop offset="0.769354" stop-color="#4E3D92"/>
<stop offset="1" stop-color="#534687" stop-opacity="0"/>
</radialGradient>
<radialGradient id="paint60_radial_1170_7549" cx="0" cy="0" r="1" gradientUnits="userSpaceOnUse" gradientTransform="translate(273.362 21.7806) rotate(121.845) scale(8.51397 9.67205)">
<stop stop-color="#4C3D70"/>
<stop offset="1" stop-color="#361C5D"/>
</radialGradient>
<radialGradient id="paint61_radial_1170_7549" cx="0" cy="0" r="1" gradientUnits="userSpaceOnUse" gradientTransform="translate(271.61 22.0052) rotate(87.1376) scale(10.7947 16.0295)">
<stop offset="0.647365" stop-color="#5B2B84" stop-opacity="0"/>
<stop offset="1" stop-color="#5B2B84"/>
</radialGradient>
<radialGradient id="paint62_radial_1170_7549" cx="0" cy="0" r="1" gradientUnits="userSpaceOnUse" gradientTransform="translate(269.184 32.8763) rotate(-99.5134) scale(16.5796 16.4185)">
<stop offset="0.858612" stop-color="#2E1D57" stop-opacity="0"/>
<stop offset="1" stop-color="#20143D"/>
</radialGradient>
<radialGradient id="paint63_radial_1170_7549" cx="0" cy="0" r="1" gradientUnits="userSpaceOnUse" gradientTransform="translate(270.577 20.927) rotate(102.225) scale(11.0314 10.3532)">
<stop offset="0.872281" stop-color="#2E1D57" stop-opacity="0"/>
<stop offset="1" stop-color="#20143D" stop-opacity="0.6"/>
</radialGradient>
<linearGradient id="paint64_linear_1170_7549" x1="274.951" y1="19.9558" x2="272.948" y2="24.5012" gradientUnits="userSpaceOnUse">
<stop stop-color="white"/>
<stop offset="0.973958" stop-color="white" stop-opacity="0"/>
</linearGradient>
<radialGradient id="paint65_radial_1170_7549" cx="0" cy="0" r="1" gradientUnits="userSpaceOnUse" gradientTransform="translate(293.441 21.1966) rotate(121.289) scale(9.51464 14.2918)">
<stop stop-color="#4C3D70"/>
<stop offset="1" stop-color="#361C5D"/>
</radialGradient>
<radialGradient id="paint66_radial_1170_7549" cx="0" cy="0" r="1" gradientUnits="userSpaceOnUse" gradientTransform="translate(290.386 22.0052) rotate(92.8624) scale(10.7947 16.0295)">
<stop offset="0.647365" stop-color="#5B2B84" stop-opacity="0"/>
<stop offset="1" stop-color="#5B2B84"/>
</radialGradient>
<radialGradient id="paint67_radial_1170_7549" cx="0" cy="0" r="1" gradientUnits="userSpaceOnUse" gradientTransform="translate(292.382 30.9446) rotate(-77.6023) scale(14.7642 14.6208)">
<stop offset="0.858612" stop-color="#2E1D57" stop-opacity="0"/>
<stop offset="1" stop-color="#20143D"/>
</radialGradient>
<radialGradient id="paint68_radial_1170_7549" cx="0" cy="0" r="1" gradientUnits="userSpaceOnUse" gradientTransform="translate(291.419 20.927) rotate(77.7749) scale(11.0314 10.3532)">
<stop offset="0.872281" stop-color="#2E1D57" stop-opacity="0"/>
<stop offset="1" stop-color="#20143D" stop-opacity="0.6"/>
</radialGradient>
<linearGradient id="paint69_linear_1170_7549" x1="297.999" y1="19.9558" x2="295.996" y2="24.5012" gradientUnits="userSpaceOnUse">
<stop stop-color="white"/>
<stop offset="0.973958" stop-color="white" stop-opacity="0"/>
</linearGradient>
<radialGradient id="paint70_radial_1170_7549" cx="0" cy="0" r="1" gradientUnits="userSpaceOnUse" gradientTransform="translate(280.998 34.3587) rotate(90) scale(15.7227 24.2483)">
<stop offset="0.145833" stop-color="#2E1529"/>
<stop offset="0.276042" stop-color="#503A4A"/>
<stop offset="0.342857" stop-color="#4B2744"/>
</radialGradient>
</defs>
</svg>
