<svg width="49" height="28" viewBox="0 0 49 28" fill="none" xmlns="http://www.w3.org/2000/svg">
<path d="M20.0049 11.074V7.84199C20.0073 7.25494 20.2419 6.69269 20.6577 6.27833C21.0736 5.86397 21.6366 5.63125 22.2236 5.63099H38.1899V1.33094C38.1894 1.06756 38.2669 0.809975 38.4131 0.590891C38.5593 0.371808 38.7673 0.201143 39.0107 0.100596C39.2542 4.88833e-05 39.5221 -0.0258658 39.7803 0.0261942C40.0385 0.0782542 40.2755 0.205928 40.4609 0.392954L48.6118 8.52095C48.8602 8.76974 48.9995 9.10691 48.9995 9.45845C48.9995 9.80998 48.8602 10.1472 48.6118 10.3959L40.4609 18.5239C40.2749 18.7095 40.038 18.8359 39.7803 18.8871C39.5226 18.9383 39.2555 18.9121 39.0127 18.8118C38.7699 18.7115 38.562 18.5416 38.4155 18.3235C38.2691 18.1053 38.1908 17.8487 38.1899 17.5859V13.286H22.2227C21.6354 13.2862 21.0722 13.0536 20.6562 12.6392C20.2403 12.2247 20.0058 11.6622 20.0039 11.075L20.0049 11.074Z" fill="#2BA0AF"/>
<path d="M8.53906 27.6091L0.388184 19.4811C0.139831 19.2323 0 18.8951 0 18.5436C0 18.192 0.139831 17.8549 0.388184 17.6061L8.53906 9.47808C8.72486 9.29258 8.96124 9.16629 9.21875 9.11511C9.47626 9.06392 9.74322 9.09014 9.98584 9.19048C10.2285 9.29083 10.4359 9.46076 10.582 9.67889C10.7282 9.89701 10.8066 10.1535 10.8071 10.4161V14.7161H26.7749C27.3616 14.7161 27.9244 14.9487 28.3398 15.363C28.7553 15.7773 28.9896 16.3394 28.9912 16.9261V20.1591C28.9896 20.7458 28.7553 21.3079 28.3398 21.7222C27.9244 22.1364 27.3616 22.3691 26.7749 22.3691H10.8071V26.6691C10.8075 26.9324 10.7293 27.1899 10.583 27.4088C10.4367 27.6277 10.2287 27.7982 9.98535 27.8986C9.74196 27.999 9.4744 28.0249 9.21631 27.9728C8.95822 27.9207 8.72152 27.793 8.53613 27.6061L8.53906 27.6091Z" fill="#2BA0AF"/>
</svg>
