<svg width="41" height="40" viewBox="0 0 41 40" fill="none" xmlns="http://www.w3.org/2000/svg">
<path fill-rule="evenodd" clip-rule="evenodd" d="M37.32 9.98969L26.2 1.76969C22.94 -0.600312 18.53 -0.600312 15.28 1.76969L4.19 9.98969C2.04 11.5397 0.75 14.0197 0.75 16.6697V31.5297C0.87 36.3197 4.84 40.0997 9.63 39.9897H31.87C36.66 40.0997 40.63 36.3197 40.75 31.5297V16.6397C40.74 13.9997 39.46 11.5297 37.33 9.97969H37.32V9.98969ZM12.41 26.9397H29.08C29.84 26.9397 30.47 27.5697 30.47 28.3297C30.47 29.0897 29.84 29.7197 29.08 29.7197H12.41C11.65 29.7197 11.02 29.0897 11.02 28.3297C11.02 27.5697 11.65 26.9397 12.41 26.9397Z" fill="#2BA0AF"/>
</svg>
