<svg width="38" height="38" viewBox="0 0 38 38" fill="none" xmlns="http://www.w3.org/2000/svg">
<path fill-rule="evenodd" clip-rule="evenodd" d="M34.75 9.48969L24.19 1.67969C21.1 -0.570312 16.91 -0.570312 13.81 1.67969L3.27 9.48969C1.23 10.9597 0 13.3197 0 15.8397V29.9597C0.12 34.5097 3.89 38.0997 8.44 37.9997H29.56C34.11 38.0997 37.88 34.5097 38 29.9597V15.8197C37.99 13.3097 36.77 10.9697 34.76 9.49968H34.75V9.48969ZM34.29 29.3797C34.18 32.1897 31.82 34.3897 29 34.2997H9C6.18 34.3897 3.82 32.1997 3.71 29.3797V16.0097C3.71 14.4897 4.46 13.0497 5.7 12.1597L15.68 4.78969C17.65 3.34969 20.33 3.34969 22.31 4.78969L32.29 12.1897C33.53 13.0597 34.28 14.4897 34.28 15.9997V29.3797H34.29ZM11.08 25.5997H26.92C27.64 25.5997 28.24 26.1897 28.24 26.9197C28.24 27.6497 27.64 28.2397 26.92 28.2397H11.08C10.36 28.2397 9.76 27.6497 9.76 26.9197C9.76 26.1897 10.36 25.5997 11.08 25.5997Z" fill="#333333"/>
</svg>
